<mxfile host="app.diagrams.net" modified="2022-07-04T11:05:42.409Z" agent="5.0 (Windows NT 10.0; Win64; x64) AppleWebKit/537.36 (KHTML, like Gecko) Chrome/103.0.0.0 Safari/537.36" etag="5HqqJgZlvO8n5xt3k0Bo" version="20.0.4" type="github">
  <diagram id="6a731a19-8d31-9384-78a2-239565b7b9f0" name="Page-1">
    <mxGraphModel dx="3692" dy="3216" grid="1" gridSize="10" guides="1" tooltips="1" connect="1" arrows="1" fold="1" page="1" pageScale="1" pageWidth="1169" pageHeight="827" background="none" math="0" shadow="0">
      <root>
        <mxCell id="0" />
        <mxCell id="1" parent="0" />
        <mxCell id="RiJoN2eTmRhTmO86q6G4-1902" value="" style="edgeStyle=none;orthogonalLoop=1;jettySize=auto;html=1;fontFamily=Helvetica;fontSize=14;fontColor=#FFFFFF;startArrow=classic;startFill=0;endArrow=classic;endFill=1;labelBackgroundColor=none;rounded=0;strokeColor=#2F5B7C;shadow=0;strokeWidth=3;" edge="1" parent="1" source="1749" target="RiJoN2eTmRhTmO86q6G4-1901">
          <mxGeometry relative="1" as="geometry" />
        </mxCell>
        <mxCell id="1749" value="South Midgaard&lt;br&gt;Zoo&lt;br&gt;Tree of Aviation&lt;br&gt;Gangland&lt;br&gt;Redferne&lt;br&gt;Dylan&lt;br&gt;Graveyard -&amp;gt; Hell&lt;br&gt;Hell -&amp;gt; Armageddon" style="rounded=1;whiteSpace=wrap;html=1;shadow=0;labelBackgroundColor=none;strokeColor=none;strokeWidth=3;fillColor=#2F5B7C;fontFamily=Helvetica;fontSize=16;fontColor=#FFFFFF;align=center;fontStyle=1;spacing=5;arcSize=7;perimeterSpacing=2;" parent="1" vertex="1">
          <mxGeometry x="472.5" y="550" width="195" height="194.5" as="geometry" />
        </mxCell>
        <mxCell id="RiJoN2eTmRhTmO86q6G4-2012" value="" style="edgeStyle=none;orthogonalLoop=1;jettySize=auto;html=1;fontFamily=Helvetica;fontSize=14;fontColor=#FFFFFF;startArrow=classic;startFill=0;endArrow=classic;endFill=1;labelBackgroundColor=none;rounded=0;strokeColor=#2F5B7C;shadow=0;strokeWidth=3;" edge="1" parent="1" source="1753" target="RiJoN2eTmRhTmO86q6G4-2011">
          <mxGeometry relative="1" as="geometry" />
        </mxCell>
        <mxCell id="RiJoN2eTmRhTmO86q6G4-2036" value="" style="edgeStyle=none;orthogonalLoop=1;jettySize=auto;html=1;fontFamily=Helvetica;fontSize=14;fontColor=#FFFFFF;startArrow=classic;startFill=0;endArrow=classic;endFill=1;labelBackgroundColor=none;rounded=0;strokeColor=#2F5B7C;shadow=0;strokeWidth=3;" edge="1" parent="1" source="1753" target="RiJoN2eTmRhTmO86q6G4-2035">
          <mxGeometry relative="1" as="geometry" />
        </mxCell>
        <mxCell id="1753" value="Haon Dor" style="rounded=1;whiteSpace=wrap;html=1;shadow=0;labelBackgroundColor=none;strokeColor=none;strokeWidth=3;fillColor=#BD9700;fontFamily=Helvetica;fontSize=14;fontColor=#FFFFFF;align=center;spacing=5;fontStyle=1;arcSize=7;perimeterSpacing=2;" parent="1" vertex="1">
          <mxGeometry x="-410" y="376.5" width="150" height="60" as="geometry" />
        </mxCell>
        <mxCell id="1754" value="Drakyri" style="rounded=1;whiteSpace=wrap;html=1;shadow=0;labelBackgroundColor=none;strokeColor=none;strokeWidth=3;fillColor=#BD9700;fontFamily=Helvetica;fontSize=14;fontColor=#FFFFFF;align=center;spacing=5;fontStyle=1;arcSize=7;perimeterSpacing=2;" parent="1" vertex="1">
          <mxGeometry x="-230" y="601" width="150" height="60" as="geometry" />
        </mxCell>
        <mxCell id="RiJoN2eTmRhTmO86q6G4-1881" value="" style="edgeStyle=none;orthogonalLoop=1;jettySize=auto;html=1;fontFamily=Helvetica;fontSize=14;fontColor=#FFFFFF;startArrow=classic;startFill=0;endArrow=classic;endFill=1;labelBackgroundColor=none;rounded=0;strokeColor=#2F5B7C;shadow=0;strokeWidth=3;" edge="1" parent="1" source="1755" target="RiJoN2eTmRhTmO86q6G4-1880">
          <mxGeometry relative="1" as="geometry" />
        </mxCell>
        <mxCell id="1755" value="Camelot" style="rounded=1;whiteSpace=wrap;html=1;shadow=0;labelBackgroundColor=none;strokeColor=none;strokeWidth=3;fillColor=#BD9700;fontFamily=Helvetica;fontSize=14;fontColor=#FFFFFF;align=center;spacing=5;fontStyle=1;arcSize=7;perimeterSpacing=2;" parent="1" vertex="1">
          <mxGeometry x="-990" y="376.5" width="150" height="60" as="geometry" />
        </mxCell>
        <mxCell id="RiJoN2eTmRhTmO86q6G4-1923" value="" style="edgeStyle=none;orthogonalLoop=1;jettySize=auto;html=1;fontFamily=Helvetica;fontSize=14;fontColor=#FFFFFF;startArrow=classic;startFill=0;endArrow=classic;endFill=1;labelBackgroundColor=none;rounded=0;strokeColor=#2F5B7C;shadow=0;strokeWidth=3;exitX=0.193;exitY=0.982;exitDx=0;exitDy=0;exitPerimeter=0;" edge="1" parent="1" source="1760" target="RiJoN2eTmRhTmO86q6G4-1922">
          <mxGeometry relative="1" as="geometry" />
        </mxCell>
        <mxCell id="RiJoN2eTmRhTmO86q6G4-1925" value="" style="edgeStyle=none;orthogonalLoop=1;jettySize=auto;html=1;fontFamily=Helvetica;fontSize=14;fontColor=#FFFFFF;startArrow=classic;startFill=0;endArrow=classic;endFill=1;labelBackgroundColor=none;rounded=0;strokeColor=#2F5B7C;shadow=0;strokeWidth=3;exitX=0.75;exitY=1;exitDx=0;exitDy=0;" edge="1" parent="1" source="1760" target="RiJoN2eTmRhTmO86q6G4-1924">
          <mxGeometry relative="1" as="geometry" />
        </mxCell>
        <mxCell id="RiJoN2eTmRhTmO86q6G4-1927" value="" style="edgeStyle=none;orthogonalLoop=1;jettySize=auto;html=1;fontFamily=Helvetica;fontSize=14;fontColor=#FFFFFF;startArrow=classic;startFill=0;endArrow=classic;endFill=1;labelBackgroundColor=none;rounded=0;strokeColor=#2F5B7C;shadow=0;strokeWidth=3;" edge="1" parent="1" source="1760" target="RiJoN2eTmRhTmO86q6G4-1926">
          <mxGeometry relative="1" as="geometry" />
        </mxCell>
        <mxCell id="1760" value="Miden&#39;nir" style="rounded=1;whiteSpace=wrap;html=1;shadow=0;labelBackgroundColor=none;strokeColor=none;strokeWidth=3;fillColor=#1699d3;fontFamily=Helvetica;fontSize=14;fontColor=#FFFFFF;align=center;spacing=5;fontStyle=1;arcSize=7;perimeterSpacing=2;" parent="1" vertex="1">
          <mxGeometry x="495" y="1980" width="150" height="60" as="geometry" />
        </mxCell>
        <mxCell id="RiJoN2eTmRhTmO86q6G4-1897" value="" style="edgeStyle=none;orthogonalLoop=1;jettySize=auto;html=1;fontFamily=Helvetica;fontSize=14;fontColor=#FFFFFF;startArrow=classic;startFill=0;endArrow=classic;endFill=1;labelBackgroundColor=none;rounded=0;strokeColor=#2F5B7C;shadow=0;strokeWidth=3;exitX=0.5;exitY=1;exitDx=0;exitDy=0;" edge="1" parent="1" source="RiJoN2eTmRhTmO86q6G4-1978" target="RiJoN2eTmRhTmO86q6G4-1896">
          <mxGeometry relative="1" as="geometry" />
        </mxCell>
        <mxCell id="RiJoN2eTmRhTmO86q6G4-1979" value="" style="edgeStyle=none;orthogonalLoop=1;jettySize=auto;html=1;fontFamily=Helvetica;fontSize=14;fontColor=#FFFFFF;startArrow=classic;startFill=0;endArrow=classic;endFill=1;labelBackgroundColor=none;rounded=0;strokeColor=#2F5B7C;shadow=0;strokeWidth=3;" edge="1" parent="1" source="1764" target="RiJoN2eTmRhTmO86q6G4-1978">
          <mxGeometry relative="1" as="geometry" />
        </mxCell>
        <mxCell id="RiJoN2eTmRhTmO86q6G4-1981" value="" style="edgeStyle=none;orthogonalLoop=1;jettySize=auto;html=1;fontFamily=Helvetica;fontSize=15;fontColor=#000000;startArrow=classic;startFill=0;endArrow=classic;endFill=1;" edge="1" parent="1" source="1764" target="RiJoN2eTmRhTmO86q6G4-1980">
          <mxGeometry relative="1" as="geometry" />
        </mxCell>
        <mxCell id="RiJoN2eTmRhTmO86q6G4-1984" value="" style="edgeStyle=none;orthogonalLoop=1;jettySize=auto;html=1;fontFamily=Helvetica;fontSize=14;fontColor=#FFFFFF;startArrow=classic;startFill=0;endArrow=classic;endFill=1;labelBackgroundColor=none;rounded=0;strokeColor=#2F5B7C;shadow=0;strokeWidth=3;" edge="1" parent="1" source="1764" target="RiJoN2eTmRhTmO86q6G4-1980">
          <mxGeometry relative="1" as="geometry" />
        </mxCell>
        <mxCell id="1764" value="Plains" style="rounded=1;whiteSpace=wrap;html=1;shadow=0;labelBackgroundColor=none;strokeColor=none;strokeWidth=3;fillColor=#F08705;fontFamily=Helvetica;fontSize=14;fontColor=#FFFFFF;align=center;spacing=5;fontStyle=1;arcSize=7;perimeterSpacing=2;" parent="1" vertex="1">
          <mxGeometry x="500" y="-1050" width="150" height="60" as="geometry" />
        </mxCell>
        <mxCell id="1767" value="Olympus" style="rounded=1;whiteSpace=wrap;html=1;shadow=0;labelBackgroundColor=none;strokeColor=none;strokeWidth=3;fillColor=#F08705;fontFamily=Helvetica;fontSize=14;fontColor=#FFFFFF;align=center;spacing=5;arcSize=7;perimeterSpacing=2;fontStyle=1;" parent="1" vertex="1">
          <mxGeometry x="500" y="-1290" width="150" height="60" as="geometry" />
        </mxCell>
        <mxCell id="1771" value="Eastern Road&lt;br&gt;(Miden&#39;nir)" style="rounded=1;whiteSpace=wrap;html=1;shadow=0;labelBackgroundColor=none;strokeColor=none;strokeWidth=3;fillColor=#12aab5;fontFamily=Helvetica;fontSize=14;fontColor=#FFFFFF;align=center;spacing=5;fontStyle=1;arcSize=7;perimeterSpacing=2;" parent="1" vertex="1">
          <mxGeometry x="1250" y="383.9999999999999" width="150" height="60" as="geometry" />
        </mxCell>
        <mxCell id="1772" value="Thalos" style="rounded=1;whiteSpace=wrap;html=1;shadow=0;labelBackgroundColor=none;strokeColor=none;strokeWidth=3;fillColor=#12aab5;fontFamily=Helvetica;fontSize=14;fontColor=#FFFFFF;align=center;spacing=5;fontStyle=1;arcSize=7;perimeterSpacing=2;" parent="1" vertex="1">
          <mxGeometry x="1250" y="560" width="150" height="60" as="geometry" />
        </mxCell>
        <mxCell id="RiJoN2eTmRhTmO86q6G4-1869" value="" style="edgeStyle=none;orthogonalLoop=1;jettySize=auto;html=1;fontFamily=Helvetica;fontSize=14;fontColor=#FFFFFF;startArrow=classic;startFill=0;endArrow=classic;endFill=1;labelBackgroundColor=none;rounded=0;strokeColor=#2F5B7C;shadow=0;strokeWidth=3;" edge="1" parent="1" source="RiJoN2eTmRhTmO86q6G4-1788" target="RiJoN2eTmRhTmO86q6G4-1868">
          <mxGeometry relative="1" as="geometry" />
        </mxCell>
        <mxCell id="RiJoN2eTmRhTmO86q6G4-2032" value="" style="edgeStyle=none;orthogonalLoop=1;jettySize=auto;html=1;fontFamily=Helvetica;fontSize=14;fontColor=#FFFFFF;startArrow=classic;startFill=0;endArrow=classic;endFill=1;labelBackgroundColor=none;rounded=0;strokeColor=#2F5B7C;shadow=0;strokeWidth=3;" edge="1" parent="1" source="RiJoN2eTmRhTmO86q6G4-1788" target="RiJoN2eTmRhTmO86q6G4-2031">
          <mxGeometry relative="1" as="geometry" />
        </mxCell>
        <mxCell id="RiJoN2eTmRhTmO86q6G4-1788" value="Haon Dor" style="rounded=1;whiteSpace=wrap;html=1;shadow=0;labelBackgroundColor=none;strokeColor=none;strokeWidth=3;fillColor=#BD9700;fontFamily=Helvetica;fontSize=14;fontColor=#FFFFFF;align=center;spacing=5;fontStyle=1;arcSize=7;perimeterSpacing=2;" vertex="1" parent="1">
          <mxGeometry x="-710" y="376.5" width="100" height="60" as="geometry" />
        </mxCell>
        <mxCell id="RiJoN2eTmRhTmO86q6G4-1955" value="" style="edgeStyle=none;orthogonalLoop=1;jettySize=auto;html=1;fontFamily=Helvetica;fontSize=14;fontColor=#FFFFFF;startArrow=classic;startFill=0;endArrow=classic;endFill=1;labelBackgroundColor=none;rounded=0;strokeColor=#2F5B7C;shadow=0;strokeWidth=3;entryX=0;entryY=0.5;entryDx=0;entryDy=0;" edge="1" parent="1" source="RiJoN2eTmRhTmO86q6G4-1792" target="RiJoN2eTmRhTmO86q6G4-1996">
          <mxGeometry relative="1" as="geometry" />
        </mxCell>
        <mxCell id="RiJoN2eTmRhTmO86q6G4-1969" value="" style="edgeStyle=none;orthogonalLoop=1;jettySize=auto;html=1;fontFamily=Helvetica;fontSize=14;fontColor=#FFFFFF;startArrow=classic;startFill=0;endArrow=classic;endFill=1;labelBackgroundColor=none;rounded=0;strokeColor=#2F5B7C;shadow=0;strokeWidth=3;" edge="1" parent="1" source="RiJoN2eTmRhTmO86q6G4-1792" target="RiJoN2eTmRhTmO86q6G4-1968">
          <mxGeometry relative="1" as="geometry" />
        </mxCell>
        <mxCell id="RiJoN2eTmRhTmO86q6G4-1792" value="New Thalos&lt;br&gt;Bazaar&lt;br&gt;Council Chambers&lt;br&gt;Citadel of the Light" style="rounded=1;whiteSpace=wrap;html=1;fontFamily=Helvetica;fontSize=14;fontColor=#FFFFFF;fillColor=#12aab5;strokeColor=none;shadow=0;labelBackgroundColor=none;strokeWidth=3;spacing=5;fontStyle=1;arcSize=7;" vertex="1" parent="1">
          <mxGeometry x="3500" y="350" width="160" height="130" as="geometry" />
        </mxCell>
        <mxCell id="RiJoN2eTmRhTmO86q6G4-1929" value="" style="edgeStyle=none;orthogonalLoop=1;jettySize=auto;html=1;fontFamily=Helvetica;fontSize=14;fontColor=#FFFFFF;startArrow=classic;startFill=0;endArrow=classic;endFill=1;labelBackgroundColor=none;rounded=0;strokeColor=#2F5B7C;shadow=0;strokeWidth=3;" edge="1" parent="1" source="RiJoN2eTmRhTmO86q6G4-1793" target="RiJoN2eTmRhTmO86q6G4-1928">
          <mxGeometry relative="1" as="geometry" />
        </mxCell>
        <mxCell id="RiJoN2eTmRhTmO86q6G4-1793" value="Eastern Road&lt;br&gt;(Miden&#39;nir)" style="rounded=1;whiteSpace=wrap;html=1;shadow=0;labelBackgroundColor=none;strokeColor=none;strokeWidth=3;fillColor=#12aab5;fontFamily=Helvetica;fontSize=14;fontColor=#FFFFFF;align=center;spacing=5;fontStyle=1;arcSize=7;perimeterSpacing=2;" vertex="1" parent="1">
          <mxGeometry x="2221" y="385.4999999999999" width="150" height="60" as="geometry" />
        </mxCell>
        <mxCell id="RiJoN2eTmRhTmO86q6G4-2051" value="" style="edgeStyle=none;orthogonalLoop=1;jettySize=auto;html=1;fontFamily=Helvetica;fontSize=16;fontColor=#23445D;startArrow=classic;startFill=0;endArrow=classic;endFill=1;labelBackgroundColor=none;rounded=0;strokeColor=#2F5B7C;shadow=0;strokeWidth=3;" edge="1" parent="1" source="RiJoN2eTmRhTmO86q6G4-1795" target="RiJoN2eTmRhTmO86q6G4-2050">
          <mxGeometry relative="1" as="geometry" />
        </mxCell>
        <mxCell id="RiJoN2eTmRhTmO86q6G4-2071" value="" style="edgeStyle=none;orthogonalLoop=1;jettySize=auto;html=1;fontFamily=Helvetica;fontSize=16;fontColor=#23445D;startArrow=classic;startFill=0;endArrow=classic;endFill=1;labelBackgroundColor=none;rounded=0;strokeColor=#2F5B7C;shadow=0;strokeWidth=3;" edge="1" parent="1" source="RiJoN2eTmRhTmO86q6G4-1795" target="RiJoN2eTmRhTmO86q6G4-2070">
          <mxGeometry relative="1" as="geometry" />
        </mxCell>
        <mxCell id="RiJoN2eTmRhTmO86q6G4-1795" value="Moria" style="rounded=1;whiteSpace=wrap;html=1;shadow=0;labelBackgroundColor=none;strokeColor=none;strokeWidth=3;fillColor=#12aab5;fontFamily=Helvetica;fontSize=14;fontColor=#FFFFFF;align=center;spacing=5;fontStyle=1;arcSize=7;perimeterSpacing=2;" vertex="1" parent="1">
          <mxGeometry x="1250" y="164.4999999999999" width="150" height="60" as="geometry" />
        </mxCell>
        <mxCell id="RiJoN2eTmRhTmO86q6G4-1796" value="" style="endArrow=classic;startArrow=classic;html=1;rounded=0;shadow=0;labelBackgroundColor=none;fontFamily=Helvetica;fontSize=16;fontColor=#23445D;strokeColor=#2F5B7C;strokeWidth=3;shape=connector;jumpStyle=none;entryX=0.5;entryY=0;entryDx=0;entryDy=0;exitX=0.5;exitY=1;exitDx=0;exitDy=0;" edge="1" parent="1" source="RiJoN2eTmRhTmO86q6G4-1795" target="1771">
          <mxGeometry width="50" height="50" relative="1" as="geometry">
            <mxPoint x="1200" y="324.5" as="sourcePoint" />
            <mxPoint x="1150" y="384.5" as="targetPoint" />
          </mxGeometry>
        </mxCell>
        <mxCell id="RiJoN2eTmRhTmO86q6G4-1798" value="Eastern Road&lt;br&gt;(Miden&#39;nir)" style="rounded=1;whiteSpace=wrap;html=1;shadow=0;labelBackgroundColor=none;strokeColor=none;strokeWidth=3;fillColor=#12aab5;fontFamily=Helvetica;fontSize=14;fontColor=#FFFFFF;align=center;spacing=5;fontStyle=1;arcSize=7;perimeterSpacing=2;" vertex="1" parent="1">
          <mxGeometry x="1624.5" y="383.9999999999999" width="150" height="60" as="geometry" />
        </mxCell>
        <mxCell id="RiJoN2eTmRhTmO86q6G4-1801" value="" style="endArrow=classic;startArrow=classic;html=1;rounded=0;shadow=0;labelBackgroundColor=none;fontFamily=Helvetica;fontSize=14;fontColor=#FFFFFF;strokeColor=#2F5B7C;strokeWidth=3;shape=connector;jumpStyle=none;exitX=1;exitY=0.5;exitDx=0;exitDy=0;entryX=0;entryY=0.5;entryDx=0;entryDy=0;" edge="1" parent="1" source="RiJoN2eTmRhTmO86q6G4-1901" target="1771">
          <mxGeometry width="50" height="50" relative="1" as="geometry">
            <mxPoint x="750" y="430" as="sourcePoint" />
            <mxPoint x="800" y="380" as="targetPoint" />
          </mxGeometry>
        </mxCell>
        <mxCell id="RiJoN2eTmRhTmO86q6G4-1803" value="" style="endArrow=classic;startArrow=classic;html=1;rounded=0;shadow=0;labelBackgroundColor=none;fontFamily=Helvetica;fontSize=14;fontColor=#FFFFFF;strokeColor=#2F5B7C;strokeWidth=3;shape=connector;jumpStyle=none;entryX=0.5;entryY=1;entryDx=0;entryDy=0;exitX=0.5;exitY=0;exitDx=0;exitDy=0;" edge="1" parent="1" source="1764" target="1767">
          <mxGeometry width="50" height="50" relative="1" as="geometry">
            <mxPoint x="585" y="-841.5" as="sourcePoint" />
            <mxPoint x="585" y="-948" as="targetPoint" />
          </mxGeometry>
        </mxCell>
        <mxCell id="RiJoN2eTmRhTmO86q6G4-1804" value="" style="endArrow=classic;startArrow=classic;html=1;rounded=0;shadow=0;labelBackgroundColor=none;fontFamily=Helvetica;fontSize=14;fontColor=#FFFFFF;strokeColor=#2F5B7C;strokeWidth=3;shape=connector;jumpStyle=none;entryX=1;entryY=0.5;entryDx=0;entryDy=0;exitX=0;exitY=0.5;exitDx=0;exitDy=0;" edge="1" parent="1" source="RiJoN2eTmRhTmO86q6G4-1901" target="RiJoN2eTmRhTmO86q6G4-2037">
          <mxGeometry width="50" height="50" relative="1" as="geometry">
            <mxPoint x="590" y="398.5" as="sourcePoint" />
            <mxPoint x="590" y="292" as="targetPoint" />
          </mxGeometry>
        </mxCell>
        <mxCell id="RiJoN2eTmRhTmO86q6G4-1805" value="" style="endArrow=classic;startArrow=classic;html=1;rounded=0;shadow=0;labelBackgroundColor=none;fontFamily=Helvetica;fontSize=14;fontColor=#FFFFFF;strokeColor=#2F5B7C;strokeWidth=3;shape=connector;jumpStyle=none;entryX=1;entryY=0.5;entryDx=0;entryDy=0;exitX=0.5;exitY=0;exitDx=0;exitDy=0;" edge="1" parent="1" source="1754" target="RiJoN2eTmRhTmO86q6G4-2011">
          <mxGeometry width="50" height="50" relative="1" as="geometry">
            <mxPoint x="-20" y="399.5" as="sourcePoint" />
            <mxPoint x="-20" y="293" as="targetPoint" />
          </mxGeometry>
        </mxCell>
        <mxCell id="RiJoN2eTmRhTmO86q6G4-1806" value="" style="endArrow=classic;startArrow=classic;html=1;rounded=0;shadow=0;labelBackgroundColor=none;fontFamily=Helvetica;fontSize=14;fontColor=#FFFFFF;strokeColor=#2F5B7C;strokeWidth=3;shape=connector;jumpStyle=none;entryX=0.5;entryY=1;entryDx=0;entryDy=0;exitX=0.5;exitY=0;exitDx=0;exitDy=0;" edge="1" parent="1" source="1760" target="1749">
          <mxGeometry width="50" height="50" relative="1" as="geometry">
            <mxPoint x="610" y="613.5" as="sourcePoint" />
            <mxPoint x="610" y="507" as="targetPoint" />
          </mxGeometry>
        </mxCell>
        <mxCell id="RiJoN2eTmRhTmO86q6G4-1807" value="" style="endArrow=classic;startArrow=classic;html=1;rounded=0;shadow=0;labelBackgroundColor=none;fontFamily=Helvetica;fontSize=14;fontColor=#FFFFFF;strokeColor=#2F5B7C;strokeWidth=3;shape=connector;jumpStyle=none;entryX=0;entryY=0.5;entryDx=0;entryDy=0;exitX=1;exitY=0.5;exitDx=0;exitDy=0;" edge="1" parent="1" source="1772" target="RiJoN2eTmRhTmO86q6G4-1834">
          <mxGeometry width="50" height="50" relative="1" as="geometry">
            <mxPoint x="910" y="428.5" as="sourcePoint" />
            <mxPoint x="910" y="322" as="targetPoint" />
          </mxGeometry>
        </mxCell>
        <mxCell id="RiJoN2eTmRhTmO86q6G4-1808" value="" style="endArrow=classic;startArrow=classic;html=1;rounded=0;shadow=0;labelBackgroundColor=none;fontFamily=Helvetica;fontSize=14;fontColor=#FFFFFF;strokeColor=#2F5B7C;strokeWidth=3;shape=connector;jumpStyle=none;entryX=0;entryY=0.5;entryDx=0;entryDy=0;exitX=1;exitY=0.5;exitDx=0;exitDy=0;" edge="1" parent="1" source="1771" target="RiJoN2eTmRhTmO86q6G4-1798">
          <mxGeometry width="50" height="50" relative="1" as="geometry">
            <mxPoint x="920" y="438.5" as="sourcePoint" />
            <mxPoint x="920" y="332" as="targetPoint" />
          </mxGeometry>
        </mxCell>
        <mxCell id="RiJoN2eTmRhTmO86q6G4-1809" value="Eastern Road&lt;br&gt;(Miden&#39;nir)" style="rounded=1;whiteSpace=wrap;html=1;shadow=0;labelBackgroundColor=none;strokeColor=none;strokeWidth=3;fillColor=#12aab5;fontFamily=Helvetica;fontSize=14;fontColor=#FFFFFF;align=center;spacing=5;fontStyle=1;arcSize=7;perimeterSpacing=2;" vertex="1" parent="1">
          <mxGeometry x="1971" y="383.9999999999999" width="150" height="60" as="geometry" />
        </mxCell>
        <mxCell id="RiJoN2eTmRhTmO86q6G4-1810" value="" style="endArrow=classic;startArrow=classic;html=1;rounded=0;shadow=0;labelBackgroundColor=none;fontFamily=Helvetica;fontSize=14;fontColor=#FFFFFF;strokeColor=#2F5B7C;strokeWidth=3;shape=connector;jumpStyle=none;entryX=0;entryY=0.5;entryDx=0;entryDy=0;exitX=1;exitY=0.5;exitDx=0;exitDy=0;" edge="1" parent="1" source="RiJoN2eTmRhTmO86q6G4-1798" target="RiJoN2eTmRhTmO86q6G4-1809">
          <mxGeometry width="50" height="50" relative="1" as="geometry">
            <mxPoint x="1483" y="423.9999999999999" as="sourcePoint" />
            <mxPoint x="1568" y="423.9999999999999" as="targetPoint" />
          </mxGeometry>
        </mxCell>
        <mxCell id="RiJoN2eTmRhTmO86q6G4-1811" value="" style="endArrow=classic;startArrow=classic;html=1;rounded=0;shadow=0;labelBackgroundColor=none;fontFamily=Helvetica;fontSize=14;fontColor=#FFFFFF;strokeColor=#2F5B7C;strokeWidth=3;shape=connector;jumpStyle=none;entryX=0;entryY=0.5;entryDx=0;entryDy=0;exitX=1;exitY=0.5;exitDx=0;exitDy=0;" edge="1" parent="1" source="RiJoN2eTmRhTmO86q6G4-1809" target="RiJoN2eTmRhTmO86q6G4-1793">
          <mxGeometry width="50" height="50" relative="1" as="geometry">
            <mxPoint x="1683" y="433.9999999999999" as="sourcePoint" />
            <mxPoint x="1768" y="433.9999999999999" as="targetPoint" />
          </mxGeometry>
        </mxCell>
        <mxCell id="RiJoN2eTmRhTmO86q6G4-1812" value="" style="endArrow=classic;startArrow=classic;html=1;rounded=0;shadow=0;labelBackgroundColor=none;fontFamily=Helvetica;fontSize=14;fontColor=#FFFFFF;strokeColor=#2F5B7C;strokeWidth=3;shape=connector;jumpStyle=none;entryX=1;entryY=0.5;entryDx=0;entryDy=0;exitX=0;exitY=0.5;exitDx=0;exitDy=0;" edge="1" parent="1" source="1753" target="RiJoN2eTmRhTmO86q6G4-1788">
          <mxGeometry width="50" height="50" relative="1" as="geometry">
            <mxPoint x="-479" y="405" as="sourcePoint" />
            <mxPoint x="-610" y="405" as="targetPoint" />
          </mxGeometry>
        </mxCell>
        <mxCell id="RiJoN2eTmRhTmO86q6G4-1813" value="" style="endArrow=classic;startArrow=classic;html=1;rounded=0;shadow=0;labelBackgroundColor=none;fontFamily=Helvetica;fontSize=14;fontColor=#FFFFFF;strokeColor=#2F5B7C;strokeWidth=3;shape=connector;jumpStyle=none;entryX=1;entryY=0.5;entryDx=0;entryDy=0;exitX=0;exitY=0.5;exitDx=0;exitDy=0;" edge="1" parent="1" source="RiJoN2eTmRhTmO86q6G4-1788" target="1755">
          <mxGeometry width="50" height="50" relative="1" as="geometry">
            <mxPoint x="-719" y="481" as="sourcePoint" />
            <mxPoint x="-850" y="481" as="targetPoint" />
          </mxGeometry>
        </mxCell>
        <mxCell id="RiJoN2eTmRhTmO86q6G4-1814" value="Forest of Bandits" style="rounded=1;whiteSpace=wrap;html=1;shadow=0;labelBackgroundColor=none;strokeColor=none;strokeWidth=3;fillColor=#12aab5;fontFamily=Helvetica;fontSize=14;fontColor=#FFFFFF;align=center;spacing=5;fontStyle=1;arcSize=7;perimeterSpacing=2;" vertex="1" parent="1">
          <mxGeometry x="1624.5" y="229.9999999999999" width="150" height="60" as="geometry" />
        </mxCell>
        <mxCell id="RiJoN2eTmRhTmO86q6G4-1815" value="" style="endArrow=classic;startArrow=classic;html=1;rounded=0;shadow=0;labelBackgroundColor=none;fontFamily=Helvetica;fontSize=14;fontColor=#FFFFFF;strokeColor=#2F5B7C;strokeWidth=3;shape=connector;jumpStyle=none;entryX=0.5;entryY=1;entryDx=0;entryDy=0;" edge="1" parent="1" source="RiJoN2eTmRhTmO86q6G4-1798" target="RiJoN2eTmRhTmO86q6G4-1814">
          <mxGeometry width="50" height="50" relative="1" as="geometry">
            <mxPoint x="1547.5" y="423.9999999999999" as="sourcePoint" />
            <mxPoint x="1632.5" y="423.9999999999999" as="targetPoint" />
          </mxGeometry>
        </mxCell>
        <mxCell id="RiJoN2eTmRhTmO86q6G4-1816" value="Divided Souls" style="rounded=1;whiteSpace=wrap;html=1;shadow=0;labelBackgroundColor=none;strokeColor=none;strokeWidth=3;fillColor=#12aab5;fontFamily=Helvetica;fontSize=14;fontColor=#FFFFFF;align=center;spacing=5;fontStyle=1;arcSize=7;perimeterSpacing=2;" vertex="1" parent="1">
          <mxGeometry x="1835.5" y="229.9999999999999" width="150" height="60" as="geometry" />
        </mxCell>
        <mxCell id="RiJoN2eTmRhTmO86q6G4-1817" value="" style="endArrow=classic;startArrow=classic;html=1;rounded=0;shadow=0;labelBackgroundColor=none;fontFamily=Helvetica;fontSize=14;fontColor=#FFFFFF;strokeColor=#2F5B7C;strokeWidth=3;shape=connector;jumpStyle=none;entryX=0;entryY=0.5;entryDx=0;entryDy=0;exitX=1;exitY=0.5;exitDx=0;exitDy=0;" edge="1" parent="1" source="RiJoN2eTmRhTmO86q6G4-1814" target="RiJoN2eTmRhTmO86q6G4-1816">
          <mxGeometry width="50" height="50" relative="1" as="geometry">
            <mxPoint x="1709.5" y="392" as="sourcePoint" />
            <mxPoint x="1709.5" y="302" as="targetPoint" />
          </mxGeometry>
        </mxCell>
        <mxCell id="RiJoN2eTmRhTmO86q6G4-1818" value="Gnome Village" style="rounded=1;whiteSpace=wrap;html=1;shadow=0;labelBackgroundColor=none;strokeColor=none;strokeWidth=3;fillColor=#12aab5;fontFamily=Helvetica;fontSize=14;fontColor=#FFFFFF;align=center;spacing=5;fontStyle=1;arcSize=7;perimeterSpacing=2;" vertex="1" parent="1">
          <mxGeometry x="1971" y="1040" width="150" height="60" as="geometry" />
        </mxCell>
        <mxCell id="RiJoN2eTmRhTmO86q6G4-1819" value="" style="endArrow=classic;startArrow=classic;html=1;rounded=0;shadow=0;labelBackgroundColor=none;fontFamily=Helvetica;fontSize=14;fontColor=#FFFFFF;strokeColor=#2F5B7C;strokeWidth=3;shape=connector;jumpStyle=none;entryX=0.5;entryY=0;entryDx=0;entryDy=0;exitX=0.5;exitY=1;exitDx=0;exitDy=0;" edge="1" parent="1" source="RiJoN2eTmRhTmO86q6G4-1809" target="RiJoN2eTmRhTmO86q6G4-1818">
          <mxGeometry width="50" height="50" relative="1" as="geometry">
            <mxPoint x="2133" y="424" as="sourcePoint" />
            <mxPoint x="2229" y="425.5" as="targetPoint" />
          </mxGeometry>
        </mxCell>
        <mxCell id="RiJoN2eTmRhTmO86q6G4-1820" value="Orcs&#39; Lair" style="rounded=1;whiteSpace=wrap;html=1;shadow=0;labelBackgroundColor=none;strokeColor=none;strokeWidth=3;fillColor=#12aab5;fontFamily=Helvetica;fontSize=14;fontColor=#FFFFFF;align=center;spacing=5;fontStyle=1;arcSize=7;perimeterSpacing=2;" vertex="1" parent="1">
          <mxGeometry x="1971" y="1170.5" width="150" height="60" as="geometry" />
        </mxCell>
        <mxCell id="RiJoN2eTmRhTmO86q6G4-1821" value="" style="endArrow=classic;startArrow=classic;html=1;rounded=0;shadow=0;labelBackgroundColor=none;fontFamily=Helvetica;fontSize=14;fontColor=#FFFFFF;strokeColor=#2F5B7C;strokeWidth=3;shape=connector;jumpStyle=none;entryX=0.5;entryY=0;entryDx=0;entryDy=0;exitX=0.5;exitY=1;exitDx=0;exitDy=0;" edge="1" parent="1" source="RiJoN2eTmRhTmO86q6G4-1818" target="RiJoN2eTmRhTmO86q6G4-1820">
          <mxGeometry width="50" height="50" relative="1" as="geometry">
            <mxPoint x="2056" y="995.9999999999998" as="sourcePoint" />
            <mxPoint x="2056" y="1047.9999999999998" as="targetPoint" />
          </mxGeometry>
        </mxCell>
        <mxCell id="RiJoN2eTmRhTmO86q6G4-1858" value="" style="edgeStyle=none;orthogonalLoop=1;jettySize=auto;html=1;fontFamily=Helvetica;fontSize=14;fontColor=#FFFFFF;startArrow=classic;startFill=0;endArrow=classic;endFill=1;labelBackgroundColor=none;rounded=0;strokeColor=#2F5B7C;shadow=0;strokeWidth=3;" edge="1" parent="1" source="RiJoN2eTmRhTmO86q6G4-1822" target="RiJoN2eTmRhTmO86q6G4-1857">
          <mxGeometry relative="1" as="geometry" />
        </mxCell>
        <mxCell id="RiJoN2eTmRhTmO86q6G4-1860" value="" style="edgeStyle=none;orthogonalLoop=1;jettySize=auto;html=1;fontFamily=Helvetica;fontSize=14;fontColor=#FFFFFF;startArrow=classic;startFill=0;endArrow=classic;endFill=1;labelBackgroundColor=none;rounded=0;strokeColor=#2F5B7C;shadow=0;strokeWidth=3;" edge="1" parent="1" source="RiJoN2eTmRhTmO86q6G4-1822" target="RiJoN2eTmRhTmO86q6G4-1859">
          <mxGeometry relative="1" as="geometry" />
        </mxCell>
        <mxCell id="RiJoN2eTmRhTmO86q6G4-1919" value="" style="edgeStyle=none;orthogonalLoop=1;jettySize=auto;html=1;fontFamily=Helvetica;fontSize=14;fontColor=#FFFFFF;startArrow=classic;startFill=0;endArrow=classic;endFill=1;labelBackgroundColor=none;rounded=0;strokeColor=#2F5B7C;shadow=0;strokeWidth=3;" edge="1" parent="1" source="RiJoN2eTmRhTmO86q6G4-1822" target="RiJoN2eTmRhTmO86q6G4-1918">
          <mxGeometry relative="1" as="geometry" />
        </mxCell>
        <mxCell id="RiJoN2eTmRhTmO86q6G4-1822" value="Plains of Blood" style="rounded=1;whiteSpace=wrap;html=1;shadow=0;labelBackgroundColor=none;strokeColor=none;strokeWidth=3;fillColor=#12aab5;fontFamily=Helvetica;fontSize=14;fontColor=#FFFFFF;align=center;spacing=5;fontStyle=1;arcSize=7;perimeterSpacing=2;" vertex="1" parent="1">
          <mxGeometry x="1480" y="1560" width="150" height="60" as="geometry" />
        </mxCell>
        <mxCell id="RiJoN2eTmRhTmO86q6G4-1823" value="" style="endArrow=classic;startArrow=classic;html=1;rounded=0;shadow=0;labelBackgroundColor=none;fontFamily=Helvetica;fontSize=14;fontColor=#FFFFFF;strokeColor=#2F5B7C;strokeWidth=3;shape=connector;jumpStyle=none;entryX=1;entryY=0;entryDx=0;entryDy=0;exitX=0;exitY=1;exitDx=0;exitDy=0;" edge="1" parent="1" source="RiJoN2eTmRhTmO86q6G4-1820" target="RiJoN2eTmRhTmO86q6G4-1822">
          <mxGeometry width="50" height="50" relative="1" as="geometry">
            <mxPoint x="2056" y="1111.9999999999998" as="sourcePoint" />
            <mxPoint x="2056" y="1178.5" as="targetPoint" />
          </mxGeometry>
        </mxCell>
        <mxCell id="RiJoN2eTmRhTmO86q6G4-1824" value="Holy Grove" style="rounded=1;whiteSpace=wrap;html=1;shadow=0;labelBackgroundColor=none;strokeColor=none;strokeWidth=3;fillColor=#12aab5;fontFamily=Helvetica;fontSize=14;fontColor=#FFFFFF;align=center;spacing=5;fontStyle=1;arcSize=7;perimeterSpacing=2;" vertex="1" parent="1">
          <mxGeometry x="2221" y="269.9999999999999" width="150" height="60" as="geometry" />
        </mxCell>
        <mxCell id="RiJoN2eTmRhTmO86q6G4-1825" value="" style="endArrow=classic;startArrow=classic;html=1;rounded=0;shadow=0;labelBackgroundColor=none;fontFamily=Helvetica;fontSize=16;fontColor=#23445D;strokeColor=#2F5B7C;strokeWidth=3;shape=connector;jumpStyle=none;entryX=0.5;entryY=1;entryDx=0;entryDy=0;" edge="1" parent="1" source="RiJoN2eTmRhTmO86q6G4-1793" target="RiJoN2eTmRhTmO86q6G4-1824">
          <mxGeometry width="50" height="50" relative="1" as="geometry">
            <mxPoint x="2383.0000000000005" y="425.4999999999999" as="sourcePoint" />
            <mxPoint x="2531" y="425.5" as="targetPoint" />
          </mxGeometry>
        </mxCell>
        <mxCell id="RiJoN2eTmRhTmO86q6G4-1826" value="Old Thalos" style="rounded=1;whiteSpace=wrap;html=1;shadow=0;labelBackgroundColor=none;strokeColor=none;strokeWidth=3;fillColor=#12aab5;fontFamily=Helvetica;fontSize=14;fontColor=#FFFFFF;align=center;spacing=5;fontStyle=1;arcSize=7;perimeterSpacing=2;" vertex="1" parent="1">
          <mxGeometry x="2431" y="269.9999999999999" width="150" height="60" as="geometry" />
        </mxCell>
        <mxCell id="RiJoN2eTmRhTmO86q6G4-1827" value="" style="endArrow=classic;startArrow=classic;html=1;rounded=0;shadow=0;labelBackgroundColor=none;fontFamily=Helvetica;fontSize=16;fontColor=#23445D;strokeColor=#2F5B7C;strokeWidth=3;shape=connector;jumpStyle=none;entryX=0;entryY=0.5;entryDx=0;entryDy=0;exitX=1;exitY=0.5;exitDx=0;exitDy=0;" edge="1" parent="1" source="RiJoN2eTmRhTmO86q6G4-1824" target="RiJoN2eTmRhTmO86q6G4-1826">
          <mxGeometry width="50" height="50" relative="1" as="geometry">
            <mxPoint x="2306" y="393.4999999999998" as="sourcePoint" />
            <mxPoint x="2306" y="341.9999999999999" as="targetPoint" />
          </mxGeometry>
        </mxCell>
        <mxCell id="RiJoN2eTmRhTmO86q6G4-1828" value="Nirvana" style="rounded=1;whiteSpace=wrap;html=1;shadow=0;labelBackgroundColor=none;strokeColor=none;strokeWidth=3;fillColor=#12aab5;fontFamily=Helvetica;fontSize=14;fontColor=#FFFFFF;align=center;spacing=5;fontStyle=1;arcSize=7;perimeterSpacing=2;" vertex="1" parent="1">
          <mxGeometry x="2431" y="139.9999999999999" width="150" height="60" as="geometry" />
        </mxCell>
        <mxCell id="RiJoN2eTmRhTmO86q6G4-1829" value="" style="endArrow=classic;startArrow=classic;html=1;rounded=0;shadow=0;labelBackgroundColor=none;fontFamily=Helvetica;fontSize=16;fontColor=#23445D;strokeColor=#2F5B7C;strokeWidth=3;shape=connector;jumpStyle=none;entryX=0.013;entryY=0.932;entryDx=0;entryDy=0;exitX=1;exitY=0;exitDx=0;exitDy=0;entryPerimeter=0;" edge="1" parent="1" source="RiJoN2eTmRhTmO86q6G4-1824" target="RiJoN2eTmRhTmO86q6G4-1828">
          <mxGeometry width="50" height="50" relative="1" as="geometry">
            <mxPoint x="2383.0000000000005" y="309.9999999999999" as="sourcePoint" />
            <mxPoint x="2439.0000000000005" y="309.9999999999999" as="targetPoint" />
          </mxGeometry>
        </mxCell>
        <mxCell id="RiJoN2eTmRhTmO86q6G4-1830" value="Hawken Village" style="rounded=1;whiteSpace=wrap;html=1;shadow=0;labelBackgroundColor=none;strokeColor=none;strokeWidth=3;fillColor=#12aab5;fontFamily=Helvetica;fontSize=14;fontColor=#FFFFFF;align=center;spacing=5;fontStyle=1;arcSize=7;perimeterSpacing=2;" vertex="1" parent="1">
          <mxGeometry x="2011" y="269.9999999999999" width="150" height="60" as="geometry" />
        </mxCell>
        <mxCell id="RiJoN2eTmRhTmO86q6G4-1831" value="" style="endArrow=classic;startArrow=classic;html=1;rounded=0;shadow=0;labelBackgroundColor=none;fontFamily=Helvetica;fontSize=16;fontColor=#23445D;strokeColor=#2F5B7C;strokeWidth=3;shape=connector;jumpStyle=none;entryX=0;entryY=0.5;entryDx=0;entryDy=0;exitX=1;exitY=0.5;exitDx=0;exitDy=0;" edge="1" parent="1" source="RiJoN2eTmRhTmO86q6G4-1830" target="RiJoN2eTmRhTmO86q6G4-1824">
          <mxGeometry width="50" height="50" relative="1" as="geometry">
            <mxPoint x="2383.0000000000005" y="278" as="sourcePoint" />
            <mxPoint x="2441.0020000000004" y="207.6479999999999" as="targetPoint" />
          </mxGeometry>
        </mxCell>
        <mxCell id="RiJoN2eTmRhTmO86q6G4-1833" value="" style="endArrow=classic;startArrow=classic;html=1;rounded=0;shadow=0;labelBackgroundColor=none;fontFamily=Helvetica;fontSize=14;fontColor=#FFFFFF;strokeColor=#2F5B7C;strokeWidth=3;shape=connector;jumpStyle=none;entryX=0.5;entryY=1;entryDx=0;entryDy=0;exitX=0.5;exitY=0;exitDx=0;exitDy=0;" edge="1" parent="1" source="1772" target="1771">
          <mxGeometry width="50" height="50" relative="1" as="geometry">
            <mxPoint x="1072" y="678" as="sourcePoint" />
            <mxPoint x="1098" y="642.5" as="targetPoint" />
          </mxGeometry>
        </mxCell>
        <mxCell id="RiJoN2eTmRhTmO86q6G4-1834" value="Thalos" style="rounded=1;whiteSpace=wrap;html=1;shadow=0;labelBackgroundColor=none;strokeColor=none;strokeWidth=3;fillColor=#12aab5;fontFamily=Helvetica;fontSize=14;fontColor=#FFFFFF;align=center;spacing=5;fontStyle=1;arcSize=7;perimeterSpacing=2;" vertex="1" parent="1">
          <mxGeometry x="1560" y="560" width="150" height="60" as="geometry" />
        </mxCell>
        <mxCell id="RiJoN2eTmRhTmO86q6G4-1839" value="" style="edgeStyle=none;orthogonalLoop=1;jettySize=auto;html=1;fontFamily=Helvetica;fontSize=14;fontColor=#FFFFFF;startArrow=classic;startFill=0;endArrow=classic;endFill=1;labelBackgroundColor=none;rounded=0;strokeColor=#2F5B7C;shadow=0;strokeWidth=3;" edge="1" parent="1" source="RiJoN2eTmRhTmO86q6G4-1836" target="RiJoN2eTmRhTmO86q6G4-1838">
          <mxGeometry relative="1" as="geometry" />
        </mxCell>
        <mxCell id="RiJoN2eTmRhTmO86q6G4-1841" value="" style="edgeStyle=none;orthogonalLoop=1;jettySize=auto;html=1;fontFamily=Helvetica;fontSize=14;fontColor=#FFFFFF;startArrow=classic;startFill=0;endArrow=classic;endFill=1;labelBackgroundColor=none;rounded=0;strokeColor=#2F5B7C;shadow=0;strokeWidth=3;" edge="1" parent="1" source="RiJoN2eTmRhTmO86q6G4-1836" target="RiJoN2eTmRhTmO86q6G4-1840">
          <mxGeometry relative="1" as="geometry" />
        </mxCell>
        <mxCell id="RiJoN2eTmRhTmO86q6G4-1852" value="" style="edgeStyle=none;orthogonalLoop=1;jettySize=auto;html=1;fontFamily=Helvetica;fontSize=14;fontColor=#FFFFFF;startArrow=classic;startFill=0;endArrow=classic;endFill=1;labelBackgroundColor=none;rounded=0;strokeColor=#2F5B7C;shadow=0;strokeWidth=3;" edge="1" parent="1" source="RiJoN2eTmRhTmO86q6G4-1836" target="RiJoN2eTmRhTmO86q6G4-1851">
          <mxGeometry relative="1" as="geometry" />
        </mxCell>
        <mxCell id="RiJoN2eTmRhTmO86q6G4-1854" value="" style="edgeStyle=none;orthogonalLoop=1;jettySize=auto;html=1;fontFamily=Helvetica;fontSize=14;fontColor=#FFFFFF;startArrow=classic;startFill=0;endArrow=classic;endFill=1;labelBackgroundColor=none;rounded=0;strokeColor=#2F5B7C;shadow=0;strokeWidth=3;" edge="1" parent="1" source="RiJoN2eTmRhTmO86q6G4-1836" target="RiJoN2eTmRhTmO86q6G4-1853">
          <mxGeometry relative="1" as="geometry" />
        </mxCell>
        <mxCell id="RiJoN2eTmRhTmO86q6G4-1836" value="Thalos" style="rounded=1;whiteSpace=wrap;html=1;shadow=0;labelBackgroundColor=none;strokeColor=none;strokeWidth=3;fillColor=#12aab5;fontFamily=Helvetica;fontSize=14;fontColor=#FFFFFF;align=center;spacing=5;fontStyle=1;arcSize=7;perimeterSpacing=2;" vertex="1" parent="1">
          <mxGeometry x="1060" y="1100" width="150" height="60" as="geometry" />
        </mxCell>
        <mxCell id="RiJoN2eTmRhTmO86q6G4-1838" value="Drow City" style="rounded=1;whiteSpace=wrap;html=1;shadow=0;labelBackgroundColor=none;strokeColor=none;strokeWidth=3;fillColor=#12aab5;fontFamily=Helvetica;fontSize=14;fontColor=#FFFFFF;align=center;spacing=5;fontStyle=1;arcSize=7;perimeterSpacing=2;" vertex="1" parent="1">
          <mxGeometry x="830" y="1100" width="150" height="60" as="geometry" />
        </mxCell>
        <mxCell id="RiJoN2eTmRhTmO86q6G4-1843" value="" style="edgeStyle=none;orthogonalLoop=1;jettySize=auto;html=1;fontFamily=Helvetica;fontSize=14;fontColor=#FFFFFF;startArrow=classic;startFill=0;endArrow=classic;endFill=1;labelBackgroundColor=none;rounded=0;strokeColor=#2F5B7C;shadow=0;strokeWidth=3;" edge="1" parent="1" source="RiJoN2eTmRhTmO86q6G4-1840" target="RiJoN2eTmRhTmO86q6G4-1842">
          <mxGeometry relative="1" as="geometry" />
        </mxCell>
        <mxCell id="RiJoN2eTmRhTmO86q6G4-1845" value="" style="edgeStyle=none;orthogonalLoop=1;jettySize=auto;html=1;fontFamily=Helvetica;fontSize=14;fontColor=#FFFFFF;startArrow=classic;startFill=0;endArrow=classic;endFill=1;labelBackgroundColor=none;rounded=0;strokeColor=#2F5B7C;shadow=0;strokeWidth=3;" edge="1" parent="1" source="RiJoN2eTmRhTmO86q6G4-1840" target="RiJoN2eTmRhTmO86q6G4-1844">
          <mxGeometry relative="1" as="geometry" />
        </mxCell>
        <mxCell id="RiJoN2eTmRhTmO86q6G4-1840" value="Thalos" style="rounded=1;whiteSpace=wrap;html=1;shadow=0;labelBackgroundColor=none;strokeColor=none;strokeWidth=3;fillColor=#12aab5;fontFamily=Helvetica;fontSize=14;fontColor=#FFFFFF;align=center;spacing=5;fontStyle=1;arcSize=7;perimeterSpacing=2;" vertex="1" parent="1">
          <mxGeometry x="1060" y="840" width="150" height="60" as="geometry" />
        </mxCell>
        <mxCell id="RiJoN2eTmRhTmO86q6G4-1842" value="Mahn-Tor" style="rounded=1;whiteSpace=wrap;html=1;shadow=0;labelBackgroundColor=none;strokeColor=none;strokeWidth=3;fillColor=#12aab5;fontFamily=Helvetica;fontSize=14;fontColor=#FFFFFF;align=center;spacing=5;fontStyle=1;arcSize=7;perimeterSpacing=2;" vertex="1" parent="1">
          <mxGeometry x="1290" y="840" width="150" height="60" as="geometry" />
        </mxCell>
        <mxCell id="RiJoN2eTmRhTmO86q6G4-1850" value="" style="edgeStyle=none;orthogonalLoop=1;jettySize=auto;html=1;fontFamily=Helvetica;fontSize=14;fontColor=#FFFFFF;startArrow=classic;startFill=0;endArrow=classic;endFill=1;labelBackgroundColor=none;rounded=0;strokeColor=#2F5B7C;shadow=0;strokeWidth=3;" edge="1" parent="1" source="RiJoN2eTmRhTmO86q6G4-1844" target="RiJoN2eTmRhTmO86q6G4-1849">
          <mxGeometry relative="1" as="geometry" />
        </mxCell>
        <mxCell id="RiJoN2eTmRhTmO86q6G4-1844" value="Thalos" style="rounded=1;whiteSpace=wrap;html=1;shadow=0;labelBackgroundColor=none;strokeColor=none;strokeWidth=3;fillColor=#12aab5;fontFamily=Helvetica;fontSize=14;fontColor=#FFFFFF;align=center;spacing=5;fontStyle=1;arcSize=7;perimeterSpacing=2;" vertex="1" parent="1">
          <mxGeometry x="1060" y="700" width="150" height="60" as="geometry" />
        </mxCell>
        <mxCell id="RiJoN2eTmRhTmO86q6G4-1848" value="" style="edgeStyle=none;orthogonalLoop=1;jettySize=auto;html=1;fontFamily=Helvetica;fontSize=14;fontColor=#FFFFFF;startArrow=classic;startFill=0;endArrow=classic;endFill=1;labelBackgroundColor=none;rounded=0;strokeColor=#FF8000;shadow=0;strokeWidth=3;" edge="1" parent="1" source="RiJoN2eTmRhTmO86q6G4-1846" target="RiJoN2eTmRhTmO86q6G4-1844">
          <mxGeometry relative="1" as="geometry">
            <Array as="points">
              <mxPoint x="1620" y="820" />
            </Array>
          </mxGeometry>
        </mxCell>
        <mxCell id="RiJoN2eTmRhTmO86q6G4-1846" value="Graye Area" style="rounded=1;whiteSpace=wrap;html=1;shadow=0;labelBackgroundColor=none;strokeColor=none;strokeWidth=3;fillColor=#12aab5;fontFamily=Helvetica;fontSize=14;fontColor=#FFFFFF;align=center;spacing=5;fontStyle=1;arcSize=7;perimeterSpacing=2;" vertex="1" parent="1">
          <mxGeometry x="1870" y="1400" width="150" height="60" as="geometry" />
        </mxCell>
        <mxCell id="RiJoN2eTmRhTmO86q6G4-1849" value="LoG Hall" style="rounded=1;whiteSpace=wrap;html=1;shadow=0;labelBackgroundColor=none;strokeColor=none;strokeWidth=3;fillColor=#12aab5;fontFamily=Helvetica;fontSize=14;fontColor=#FFFFFF;align=center;spacing=5;fontStyle=1;arcSize=7;perimeterSpacing=2;" vertex="1" parent="1">
          <mxGeometry x="830" y="700" width="150" height="60" as="geometry" />
        </mxCell>
        <mxCell id="RiJoN2eTmRhTmO86q6G4-1851" value="Elemental Canyon" style="rounded=1;whiteSpace=wrap;html=1;shadow=0;labelBackgroundColor=none;strokeColor=none;strokeWidth=3;fillColor=#12aab5;fontFamily=Helvetica;fontSize=14;fontColor=#FFFFFF;align=center;spacing=5;fontStyle=1;arcSize=7;perimeterSpacing=2;" vertex="1" parent="1">
          <mxGeometry x="1060" y="1240" width="150" height="60" as="geometry" />
        </mxCell>
        <mxCell id="RiJoN2eTmRhTmO86q6G4-1853" value="Wyvern Tower" style="rounded=1;whiteSpace=wrap;html=1;shadow=0;labelBackgroundColor=none;strokeColor=none;strokeWidth=3;fillColor=#12aab5;fontFamily=Helvetica;fontSize=14;fontColor=#FFFFFF;align=center;spacing=5;fontStyle=1;arcSize=7;perimeterSpacing=2;" vertex="1" parent="1">
          <mxGeometry x="1290" y="1100" width="150" height="60" as="geometry" />
        </mxCell>
        <mxCell id="RiJoN2eTmRhTmO86q6G4-1855" value="" style="curved=1;endArrow=classic;html=1;fontFamily=Helvetica;fontSize=14;fontColor=#FFFFFF;entryX=0;entryY=1;entryDx=0;entryDy=0;exitX=1;exitY=0.75;exitDx=0;exitDy=0;labelBackgroundColor=none;rounded=0;strokeColor=#2F5B7C;startArrow=classic;startFill=0;endFill=1;shadow=0;strokeWidth=3;" edge="1" parent="1" source="RiJoN2eTmRhTmO86q6G4-1838" target="RiJoN2eTmRhTmO86q6G4-1853">
          <mxGeometry width="50" height="50" relative="1" as="geometry">
            <mxPoint x="1130" y="1380" as="sourcePoint" />
            <mxPoint x="1180" y="1330" as="targetPoint" />
            <Array as="points">
              <mxPoint x="1050" y="1390" />
              <mxPoint x="1240" y="1360" />
            </Array>
          </mxGeometry>
        </mxCell>
        <mxCell id="RiJoN2eTmRhTmO86q6G4-1856" value="" style="curved=1;endArrow=classic;html=1;fontFamily=Helvetica;fontSize=14;fontColor=#FFFFFF;exitX=0.5;exitY=1;exitDx=0;exitDy=0;entryX=0;entryY=0.5;entryDx=0;entryDy=0;labelBackgroundColor=none;rounded=0;strokeColor=#2F5B7C;startArrow=classic;startFill=0;endFill=1;shadow=0;strokeWidth=3;" edge="1" parent="1" source="RiJoN2eTmRhTmO86q6G4-1853" target="RiJoN2eTmRhTmO86q6G4-1822">
          <mxGeometry width="50" height="50" relative="1" as="geometry">
            <mxPoint x="1550" y="1080" as="sourcePoint" />
            <mxPoint x="1600" y="1030" as="targetPoint" />
            <Array as="points">
              <mxPoint x="1380" y="1380" />
            </Array>
          </mxGeometry>
        </mxCell>
        <mxCell id="RiJoN2eTmRhTmO86q6G4-1857" value="City of Anon&lt;br&gt;(and Walls)&lt;br&gt;(and Dungeon)" style="rounded=1;whiteSpace=wrap;html=1;shadow=0;labelBackgroundColor=none;strokeColor=none;strokeWidth=3;fillColor=#12aab5;fontFamily=Helvetica;fontSize=14;fontColor=#FFFFFF;align=center;spacing=5;fontStyle=1;arcSize=7;perimeterSpacing=2;" vertex="1" parent="1">
          <mxGeometry x="1940" y="1560" width="150" height="60" as="geometry" />
        </mxCell>
        <mxCell id="RiJoN2eTmRhTmO86q6G4-1914" value="" style="edgeStyle=none;orthogonalLoop=1;jettySize=auto;html=1;fontFamily=Helvetica;fontSize=14;fontColor=#FFFFFF;startArrow=classic;startFill=0;endArrow=classic;endFill=1;labelBackgroundColor=none;rounded=0;strokeColor=#2F5B7C;shadow=0;strokeWidth=3;exitX=0;exitY=1;exitDx=0;exitDy=0;" edge="1" parent="1" source="RiJoN2eTmRhTmO86q6G4-1859" target="RiJoN2eTmRhTmO86q6G4-1913">
          <mxGeometry relative="1" as="geometry" />
        </mxCell>
        <mxCell id="RiJoN2eTmRhTmO86q6G4-1859" value="Haunted House" style="rounded=1;whiteSpace=wrap;html=1;shadow=0;labelBackgroundColor=none;strokeColor=none;strokeWidth=3;fillColor=#12aab5;fontFamily=Helvetica;fontSize=14;fontColor=#FFFFFF;align=center;spacing=5;fontStyle=1;arcSize=7;perimeterSpacing=2;" vertex="1" parent="1">
          <mxGeometry x="1480" y="1700" width="150" height="60" as="geometry" />
        </mxCell>
        <mxCell id="RiJoN2eTmRhTmO86q6G4-1861" value="" style="curved=1;endArrow=classic;html=1;fontFamily=Helvetica;fontSize=14;fontColor=#FFFFFF;exitX=0;exitY=1;exitDx=0;exitDy=0;entryX=0;entryY=1;entryDx=0;entryDy=0;labelBackgroundColor=none;rounded=0;strokeColor=#999900;startArrow=classic;startFill=0;endFill=1;shadow=0;strokeWidth=3;" edge="1" parent="1" source="RiJoN2eTmRhTmO86q6G4-1853" target="RiJoN2eTmRhTmO86q6G4-1857">
          <mxGeometry width="50" height="50" relative="1" as="geometry">
            <mxPoint x="1375" y="1172" as="sourcePoint" />
            <mxPoint x="1488" y="1600" as="targetPoint" />
            <Array as="points">
              <mxPoint x="1230" y="2200" />
            </Array>
          </mxGeometry>
        </mxCell>
        <mxCell id="RiJoN2eTmRhTmO86q6G4-1862" value="" style="curved=1;endArrow=classic;html=1;fontFamily=Helvetica;fontSize=14;fontColor=#FFFFFF;exitX=0.5;exitY=1;exitDx=0;exitDy=0;entryX=0;entryY=0.5;entryDx=0;entryDy=0;labelBackgroundColor=none;rounded=0;strokeColor=#2F5B7C;startArrow=classic;startFill=0;endFill=1;shadow=0;strokeWidth=3;" edge="1" parent="1" source="RiJoN2eTmRhTmO86q6G4-1853" target="RiJoN2eTmRhTmO86q6G4-1859">
          <mxGeometry width="50" height="50" relative="1" as="geometry">
            <mxPoint x="1375" y="1172" as="sourcePoint" />
            <mxPoint x="1488" y="1600" as="targetPoint" />
            <Array as="points">
              <mxPoint x="1340" y="1410" />
            </Array>
          </mxGeometry>
        </mxCell>
        <mxCell id="RiJoN2eTmRhTmO86q6G4-1863" value="" style="curved=1;endArrow=classic;html=1;fontFamily=Helvetica;fontSize=14;fontColor=#FFFFFF;exitX=0;exitY=1;exitDx=0;exitDy=0;entryX=1;entryY=0;entryDx=0;entryDy=0;labelBackgroundColor=none;rounded=0;strokeColor=#2F5B7C;startArrow=classic;startFill=0;endFill=1;shadow=0;strokeWidth=3;" edge="1" parent="1" source="RiJoN2eTmRhTmO86q6G4-1834" target="RiJoN2eTmRhTmO86q6G4-1836">
          <mxGeometry width="50" height="50" relative="1" as="geometry">
            <mxPoint x="1375" y="1172" as="sourcePoint" />
            <mxPoint x="1488" y="1600" as="targetPoint" />
            <Array as="points">
              <mxPoint x="1530" y="980" />
            </Array>
          </mxGeometry>
        </mxCell>
        <mxCell id="RiJoN2eTmRhTmO86q6G4-1864" value="" style="curved=1;endArrow=classic;html=1;fontFamily=Helvetica;fontSize=14;fontColor=#FFFFFF;entryX=1;entryY=1;entryDx=0;entryDy=0;labelBackgroundColor=none;rounded=0;strokeColor=#2F5B7C;startArrow=classic;shadow=0;strokeWidth=3;exitX=0;exitY=1;exitDx=0;exitDy=0;" edge="1" parent="1" source="RiJoN2eTmRhTmO86q6G4-1901" target="RiJoN2eTmRhTmO86q6G4-1820">
          <mxGeometry width="50" height="50" relative="1" as="geometry">
            <mxPoint x="470" y="480" as="sourcePoint" />
            <mxPoint x="2150" y="1310" as="targetPoint" />
            <Array as="points">
              <mxPoint x="10" y="1610" />
              <mxPoint x="2330" y="2100" />
            </Array>
          </mxGeometry>
        </mxCell>
        <mxCell id="RiJoN2eTmRhTmO86q6G4-1867" value="&lt;font color=&quot;#000000&quot; style=&quot;font-size: 72px;&quot;&gt;???&lt;/font&gt;" style="text;html=1;strokeColor=none;fillColor=none;align=center;verticalAlign=middle;whiteSpace=wrap;rounded=0;fontFamily=Helvetica;fontSize=14;fontColor=#FFFFFF;" vertex="1" parent="1">
          <mxGeometry x="770" y="1670" width="340" height="200" as="geometry" />
        </mxCell>
        <mxCell id="RiJoN2eTmRhTmO86q6G4-1871" value="" style="edgeStyle=none;orthogonalLoop=1;jettySize=auto;html=1;fontFamily=Helvetica;fontSize=14;fontColor=#FFFFFF;startArrow=classic;startFill=0;endArrow=classic;endFill=1;labelBackgroundColor=none;rounded=0;strokeColor=#2F5B7C;shadow=0;strokeWidth=3;" edge="1" parent="1" source="RiJoN2eTmRhTmO86q6G4-1868" target="RiJoN2eTmRhTmO86q6G4-1870">
          <mxGeometry relative="1" as="geometry" />
        </mxCell>
        <mxCell id="RiJoN2eTmRhTmO86q6G4-2022" value="" style="edgeStyle=none;orthogonalLoop=1;jettySize=auto;html=1;fontFamily=Helvetica;fontSize=14;fontColor=#FFFFFF;startArrow=classic;startFill=0;endArrow=classic;endFill=1;labelBackgroundColor=none;rounded=0;strokeColor=#2F5B7C;shadow=0;strokeWidth=3;" edge="1" parent="1" source="RiJoN2eTmRhTmO86q6G4-1868" target="RiJoN2eTmRhTmO86q6G4-2021">
          <mxGeometry relative="1" as="geometry" />
        </mxCell>
        <mxCell id="RiJoN2eTmRhTmO86q6G4-1868" value="Haon Dor" style="rounded=1;whiteSpace=wrap;html=1;shadow=0;labelBackgroundColor=none;strokeColor=none;strokeWidth=3;fillColor=#BD9700;fontFamily=Helvetica;fontSize=14;fontColor=#FFFFFF;align=center;spacing=5;fontStyle=1;arcSize=7;perimeterSpacing=2;" vertex="1" parent="1">
          <mxGeometry x="-710" y="516.5" width="100" height="60" as="geometry" />
        </mxCell>
        <mxCell id="RiJoN2eTmRhTmO86q6G4-1873" value="" style="edgeStyle=none;orthogonalLoop=1;jettySize=auto;html=1;fontFamily=Helvetica;fontSize=14;fontColor=#FFFFFF;startArrow=classic;startFill=0;endArrow=classic;endFill=1;labelBackgroundColor=none;rounded=0;strokeColor=#2F5B7C;shadow=0;strokeWidth=3;" edge="1" parent="1" source="RiJoN2eTmRhTmO86q6G4-1870" target="RiJoN2eTmRhTmO86q6G4-1872">
          <mxGeometry relative="1" as="geometry" />
        </mxCell>
        <mxCell id="RiJoN2eTmRhTmO86q6G4-1877" value="" style="edgeStyle=none;orthogonalLoop=1;jettySize=auto;html=1;fontFamily=Helvetica;fontSize=14;fontColor=#FFFFFF;startArrow=classic;startFill=0;endArrow=classic;endFill=1;labelBackgroundColor=none;rounded=0;strokeColor=#2F5B7C;shadow=0;strokeWidth=3;" edge="1" parent="1" source="RiJoN2eTmRhTmO86q6G4-1870" target="RiJoN2eTmRhTmO86q6G4-1876">
          <mxGeometry relative="1" as="geometry" />
        </mxCell>
        <mxCell id="RiJoN2eTmRhTmO86q6G4-1870" value="Haon Dor" style="rounded=1;whiteSpace=wrap;html=1;shadow=0;labelBackgroundColor=none;strokeColor=none;strokeWidth=3;fillColor=#BD9700;fontFamily=Helvetica;fontSize=14;fontColor=#FFFFFF;align=center;spacing=5;fontStyle=1;arcSize=7;perimeterSpacing=2;" vertex="1" parent="1">
          <mxGeometry x="-970" y="515.5" width="100" height="60" as="geometry" />
        </mxCell>
        <mxCell id="RiJoN2eTmRhTmO86q6G4-1875" value="" style="edgeStyle=none;orthogonalLoop=1;jettySize=auto;html=1;fontFamily=Helvetica;fontSize=14;fontColor=#FFFFFF;startArrow=classic;startFill=0;endArrow=classic;endFill=1;labelBackgroundColor=none;rounded=0;strokeColor=#2F5B7C;shadow=0;strokeWidth=3;" edge="1" parent="1" source="RiJoN2eTmRhTmO86q6G4-1872" target="RiJoN2eTmRhTmO86q6G4-1874">
          <mxGeometry relative="1" as="geometry" />
        </mxCell>
        <mxCell id="RiJoN2eTmRhTmO86q6G4-2075" value="" style="edgeStyle=none;orthogonalLoop=1;jettySize=auto;html=1;fontFamily=Helvetica;fontSize=14;fontColor=#FFFFFF;startArrow=classic;startFill=0;endArrow=classic;endFill=1;labelBackgroundColor=none;rounded=0;strokeColor=#2F5B7C;shadow=0;strokeWidth=3;" edge="1" parent="1" source="RiJoN2eTmRhTmO86q6G4-1872" target="RiJoN2eTmRhTmO86q6G4-2074">
          <mxGeometry relative="1" as="geometry" />
        </mxCell>
        <mxCell id="RiJoN2eTmRhTmO86q6G4-1872" value="Haon Dor" style="rounded=1;whiteSpace=wrap;html=1;shadow=0;labelBackgroundColor=none;strokeColor=none;strokeWidth=3;fillColor=#BD9700;fontFamily=Helvetica;fontSize=14;fontColor=#FFFFFF;align=center;spacing=5;fontStyle=1;arcSize=7;perimeterSpacing=2;" vertex="1" parent="1">
          <mxGeometry x="-1150" y="515.5" width="100" height="60" as="geometry" />
        </mxCell>
        <mxCell id="RiJoN2eTmRhTmO86q6G4-1874" value="Arachnos" style="rounded=1;whiteSpace=wrap;html=1;shadow=0;labelBackgroundColor=none;strokeColor=none;strokeWidth=3;fillColor=#BD9700;fontFamily=Helvetica;fontSize=14;fontColor=#FFFFFF;align=center;spacing=5;fontStyle=1;arcSize=7;perimeterSpacing=2;" vertex="1" parent="1">
          <mxGeometry x="-1150" y="375.5" width="100" height="60" as="geometry" />
        </mxCell>
        <mxCell id="RiJoN2eTmRhTmO86q6G4-1879" value="" style="edgeStyle=none;orthogonalLoop=1;jettySize=auto;html=1;fontFamily=Helvetica;fontSize=14;fontColor=#FFFFFF;startArrow=classic;startFill=0;endArrow=classic;endFill=1;labelBackgroundColor=none;rounded=0;strokeColor=#2F5B7C;shadow=0;strokeWidth=3;" edge="1" parent="1" source="RiJoN2eTmRhTmO86q6G4-1876" target="RiJoN2eTmRhTmO86q6G4-1878">
          <mxGeometry relative="1" as="geometry" />
        </mxCell>
        <mxCell id="RiJoN2eTmRhTmO86q6G4-1876" value="Haon Dor" style="rounded=1;whiteSpace=wrap;html=1;shadow=0;labelBackgroundColor=none;strokeColor=none;strokeWidth=3;fillColor=#BD9700;fontFamily=Helvetica;fontSize=14;fontColor=#FFFFFF;align=center;spacing=5;fontStyle=1;arcSize=7;perimeterSpacing=2;" vertex="1" parent="1">
          <mxGeometry x="-970" y="655.5" width="100" height="60" as="geometry" />
        </mxCell>
        <mxCell id="RiJoN2eTmRhTmO86q6G4-2028" value="" style="edgeStyle=none;orthogonalLoop=1;jettySize=auto;html=1;fontFamily=Helvetica;fontSize=14;fontColor=#FFFFFF;startArrow=classic;startFill=0;endArrow=classic;endFill=1;labelBackgroundColor=none;rounded=0;strokeColor=#2F5B7C;shadow=0;strokeWidth=3;" edge="1" parent="1" source="RiJoN2eTmRhTmO86q6G4-1878" target="RiJoN2eTmRhTmO86q6G4-2027">
          <mxGeometry relative="1" as="geometry" />
        </mxCell>
        <mxCell id="RiJoN2eTmRhTmO86q6G4-2030" value="" style="edgeStyle=none;orthogonalLoop=1;jettySize=auto;html=1;fontFamily=Helvetica;fontSize=14;fontColor=#FFFFFF;startArrow=classic;startFill=0;endArrow=classic;endFill=1;labelBackgroundColor=none;rounded=0;strokeColor=#2F5B7C;shadow=0;strokeWidth=3;" edge="1" parent="1" source="RiJoN2eTmRhTmO86q6G4-1878" target="RiJoN2eTmRhTmO86q6G4-2029">
          <mxGeometry relative="1" as="geometry" />
        </mxCell>
        <mxCell id="RiJoN2eTmRhTmO86q6G4-1878" value="Marsh" style="rounded=1;whiteSpace=wrap;html=1;shadow=0;labelBackgroundColor=none;strokeColor=none;strokeWidth=3;fillColor=#BD9700;fontFamily=Helvetica;fontSize=14;fontColor=#FFFFFF;align=center;spacing=5;fontStyle=1;arcSize=7;perimeterSpacing=2;" vertex="1" parent="1">
          <mxGeometry x="-970" y="795.5" width="100" height="60" as="geometry" />
        </mxCell>
        <mxCell id="RiJoN2eTmRhTmO86q6G4-1883" value="" style="edgeStyle=none;orthogonalLoop=1;jettySize=auto;html=1;fontFamily=Helvetica;fontSize=14;fontColor=#FFFFFF;startArrow=classic;startFill=0;endArrow=classic;endFill=1;labelBackgroundColor=none;rounded=0;strokeColor=#2F5B7C;shadow=0;strokeWidth=3;" edge="1" parent="1" source="RiJoN2eTmRhTmO86q6G4-1880" target="RiJoN2eTmRhTmO86q6G4-1882">
          <mxGeometry relative="1" as="geometry" />
        </mxCell>
        <mxCell id="RiJoN2eTmRhTmO86q6G4-1880" value="Camelot" style="rounded=1;whiteSpace=wrap;html=1;shadow=0;labelBackgroundColor=none;strokeColor=none;strokeWidth=3;fillColor=#BD9700;fontFamily=Helvetica;fontSize=14;fontColor=#FFFFFF;align=center;spacing=5;fontStyle=1;arcSize=7;perimeterSpacing=2;" vertex="1" parent="1">
          <mxGeometry x="-990" y="-1160" width="150" height="60" as="geometry" />
        </mxCell>
        <mxCell id="RiJoN2eTmRhTmO86q6G4-1887" value="" style="edgeStyle=none;orthogonalLoop=1;jettySize=auto;html=1;fontFamily=Helvetica;fontSize=14;fontColor=#FFFFFF;startArrow=classic;startFill=0;endArrow=classic;endFill=1;labelBackgroundColor=none;rounded=0;strokeColor=#2F5B7C;shadow=0;strokeWidth=3;" edge="1" parent="1" source="RiJoN2eTmRhTmO86q6G4-1882" target="RiJoN2eTmRhTmO86q6G4-1886">
          <mxGeometry relative="1" as="geometry" />
        </mxCell>
        <mxCell id="RiJoN2eTmRhTmO86q6G4-1890" value="" style="edgeStyle=none;orthogonalLoop=1;jettySize=auto;html=1;fontFamily=Helvetica;fontSize=14;fontColor=#FFFFFF;startArrow=classic;startFill=0;endArrow=classic;endFill=1;labelBackgroundColor=none;rounded=0;strokeColor=#2F5B7C;shadow=0;strokeWidth=3;" edge="1" parent="1" source="RiJoN2eTmRhTmO86q6G4-1882" target="RiJoN2eTmRhTmO86q6G4-1889">
          <mxGeometry relative="1" as="geometry" />
        </mxCell>
        <mxCell id="RiJoN2eTmRhTmO86q6G4-1882" value="Camelot" style="rounded=1;whiteSpace=wrap;html=1;shadow=0;labelBackgroundColor=none;strokeColor=none;strokeWidth=3;fillColor=#BD9700;fontFamily=Helvetica;fontSize=14;fontColor=#FFFFFF;align=center;spacing=5;fontStyle=1;arcSize=7;perimeterSpacing=2;" vertex="1" parent="1">
          <mxGeometry x="-760" y="-1160" width="150" height="60" as="geometry" />
        </mxCell>
        <mxCell id="RiJoN2eTmRhTmO86q6G4-1886" value="Southern Camelot" style="rounded=1;whiteSpace=wrap;html=1;shadow=0;labelBackgroundColor=none;strokeColor=none;strokeWidth=3;fillColor=#BD9700;fontFamily=Helvetica;fontSize=14;fontColor=#FFFFFF;align=center;spacing=5;fontStyle=1;arcSize=7;perimeterSpacing=2;" vertex="1" parent="1">
          <mxGeometry x="-760" y="-1020" width="150" height="60" as="geometry" />
        </mxCell>
        <mxCell id="RiJoN2eTmRhTmO86q6G4-1892" value="" style="edgeStyle=none;orthogonalLoop=1;jettySize=auto;html=1;fontFamily=Helvetica;fontSize=14;fontColor=#FFFFFF;startArrow=classic;startFill=0;endArrow=classic;endFill=1;labelBackgroundColor=none;rounded=0;strokeColor=#2F5B7C;shadow=0;strokeWidth=3;" edge="1" parent="1" source="RiJoN2eTmRhTmO86q6G4-1889" target="RiJoN2eTmRhTmO86q6G4-1891">
          <mxGeometry relative="1" as="geometry" />
        </mxCell>
        <mxCell id="RiJoN2eTmRhTmO86q6G4-1895" value="" style="edgeStyle=none;orthogonalLoop=1;jettySize=auto;html=1;fontFamily=Helvetica;fontSize=14;fontColor=#FFFFFF;startArrow=classic;startFill=0;endArrow=classic;endFill=1;labelBackgroundColor=none;rounded=0;strokeColor=#2F5B7C;shadow=0;strokeWidth=3;" edge="1" parent="1" source="RiJoN2eTmRhTmO86q6G4-1889" target="RiJoN2eTmRhTmO86q6G4-1894">
          <mxGeometry relative="1" as="geometry" />
        </mxCell>
        <mxCell id="RiJoN2eTmRhTmO86q6G4-1889" value="Living Forest" style="rounded=1;whiteSpace=wrap;html=1;shadow=0;labelBackgroundColor=none;strokeColor=none;strokeWidth=3;fillColor=#BD9700;fontFamily=Helvetica;fontSize=14;fontColor=#FFFFFF;align=center;spacing=5;fontStyle=1;arcSize=7;perimeterSpacing=2;" vertex="1" parent="1">
          <mxGeometry x="-760" y="-1300" width="150" height="60" as="geometry" />
        </mxCell>
        <mxCell id="RiJoN2eTmRhTmO86q6G4-1891" value="Troll Cavern" style="rounded=1;whiteSpace=wrap;html=1;shadow=0;labelBackgroundColor=none;strokeColor=none;strokeWidth=3;fillColor=#BD9700;fontFamily=Helvetica;fontSize=14;fontColor=#FFFFFF;align=center;spacing=5;fontStyle=1;arcSize=7;perimeterSpacing=2;" vertex="1" parent="1">
          <mxGeometry x="-530" y="-1300" width="150" height="60" as="geometry" />
        </mxCell>
        <mxCell id="RiJoN2eTmRhTmO86q6G4-1893" value="" style="endArrow=classic;startArrow=classic;html=1;rounded=0;shadow=0;labelBackgroundColor=none;fontFamily=Helvetica;fontSize=14;fontColor=#FFFFFF;strokeColor=#2F5B7C;strokeWidth=3;shape=connector;jumpStyle=none;exitX=1;exitY=0.5;exitDx=0;exitDy=0;" edge="1" parent="1" source="RiJoN2eTmRhTmO86q6G4-1891" target="1767">
          <mxGeometry width="50" height="50" relative="1" as="geometry">
            <mxPoint x="580" y="-162" as="sourcePoint" />
            <mxPoint x="230" y="-520" as="targetPoint" />
          </mxGeometry>
        </mxCell>
        <mxCell id="RiJoN2eTmRhTmO86q6G4-1894" value="HellGate Keep" style="rounded=1;whiteSpace=wrap;html=1;shadow=0;labelBackgroundColor=none;strokeColor=none;strokeWidth=3;fillColor=#BD9700;fontFamily=Helvetica;fontSize=14;fontColor=#FFFFFF;align=center;spacing=5;fontStyle=1;arcSize=7;perimeterSpacing=2;" vertex="1" parent="1">
          <mxGeometry x="-760" y="-1440" width="150" height="60" as="geometry" />
        </mxCell>
        <mxCell id="RiJoN2eTmRhTmO86q6G4-1900" value="" style="edgeStyle=none;orthogonalLoop=1;jettySize=auto;html=1;fontFamily=Helvetica;fontSize=14;fontColor=#FFFFFF;startArrow=classic;startFill=0;endArrow=classic;endFill=1;labelBackgroundColor=none;rounded=0;strokeColor=#2F5B7C;shadow=0;strokeWidth=3;" edge="1" parent="1" source="RiJoN2eTmRhTmO86q6G4-1896" target="RiJoN2eTmRhTmO86q6G4-1899">
          <mxGeometry relative="1" as="geometry" />
        </mxCell>
        <mxCell id="RiJoN2eTmRhTmO86q6G4-2042" value="" style="edgeStyle=none;orthogonalLoop=1;jettySize=auto;html=1;fontFamily=Helvetica;fontSize=14;fontColor=#FFFFFF;startArrow=classic;startFill=0;endArrow=classic;endFill=1;labelBackgroundColor=none;rounded=0;strokeColor=#2F5B7C;shadow=0;strokeWidth=3;" edge="1" parent="1" source="RiJoN2eTmRhTmO86q6G4-1896" target="RiJoN2eTmRhTmO86q6G4-2041">
          <mxGeometry relative="1" as="geometry" />
        </mxCell>
        <mxCell id="RiJoN2eTmRhTmO86q6G4-1896" value="Plains" style="rounded=1;whiteSpace=wrap;html=1;shadow=0;labelBackgroundColor=none;strokeColor=none;strokeWidth=3;fillColor=#F08705;fontFamily=Helvetica;fontSize=14;fontColor=#FFFFFF;align=center;spacing=5;fontStyle=1;arcSize=7;perimeterSpacing=2;" vertex="1" parent="1">
          <mxGeometry x="500" y="-500" width="150" height="60" as="geometry" />
        </mxCell>
        <mxCell id="RiJoN2eTmRhTmO86q6G4-1898" value="" style="edgeStyle=none;orthogonalLoop=1;jettySize=auto;html=1;fontFamily=Helvetica;fontSize=14;fontColor=#FFFFFF;startArrow=classic;startFill=0;endArrow=classic;endFill=1;labelBackgroundColor=none;rounded=0;strokeColor=#2F5B7C;shadow=0;strokeWidth=3;exitX=0.5;exitY=1;exitDx=0;exitDy=0;entryX=0.5;entryY=0;entryDx=0;entryDy=0;" edge="1" parent="1" source="RiJoN2eTmRhTmO86q6G4-1896" target="RiJoN2eTmRhTmO86q6G4-1901">
          <mxGeometry relative="1" as="geometry">
            <mxPoint x="580" y="52.00000000000023" as="sourcePoint" />
            <mxPoint x="570" y="-50" as="targetPoint" />
          </mxGeometry>
        </mxCell>
        <mxCell id="RiJoN2eTmRhTmO86q6G4-1899" value="Monks End" style="rounded=1;whiteSpace=wrap;html=1;shadow=0;labelBackgroundColor=none;strokeColor=none;strokeWidth=3;fillColor=#F08705;fontFamily=Helvetica;fontSize=14;fontColor=#FFFFFF;align=center;spacing=5;fontStyle=1;arcSize=7;perimeterSpacing=2;" vertex="1" parent="1">
          <mxGeometry x="815" y="-500" width="150" height="60" as="geometry" />
        </mxCell>
        <mxCell id="RiJoN2eTmRhTmO86q6G4-1901" value="Midgaard&lt;br&gt;Mob Factory&lt;br&gt;Machine Dreams&lt;br&gt;Valhalla&lt;br&gt;MUD School&lt;br&gt;School Tower&lt;br&gt;Rat&#39;s Lair" style="rounded=1;whiteSpace=wrap;html=1;shadow=0;labelBackgroundColor=none;strokeColor=none;strokeWidth=3;fillColor=#2F5B7C;fontFamily=Helvetica;fontSize=16;fontColor=#FFFFFF;align=center;fontStyle=1;spacing=5;arcSize=7;perimeterSpacing=2;" vertex="1" parent="1">
          <mxGeometry x="495" y="320" width="150" height="180.5" as="geometry" />
        </mxCell>
        <mxCell id="RiJoN2eTmRhTmO86q6G4-1903" value="" style="curved=1;endArrow=classic;html=1;fontFamily=Helvetica;fontSize=14;fontColor=#FFFFFF;entryX=1;entryY=0.75;entryDx=0;entryDy=0;exitX=0;exitY=1;exitDx=0;exitDy=0;labelBackgroundColor=none;rounded=0;strokeColor=#2F5B7C;startArrow=classic;startFill=0;endFill=1;shadow=0;strokeWidth=3;" edge="1" parent="1" source="RiJoN2eTmRhTmO86q6G4-1859" target="1749">
          <mxGeometry width="50" height="50" relative="1" as="geometry">
            <mxPoint x="760" y="1050" as="sourcePoint" />
            <mxPoint x="810" y="1000" as="targetPoint" />
            <Array as="points">
              <mxPoint x="890" y="1710" />
            </Array>
          </mxGeometry>
        </mxCell>
        <mxCell id="RiJoN2eTmRhTmO86q6G4-1904" value="&lt;font color=&quot;#000000&quot; style=&quot;font-size: 72px;&quot;&gt;??????&lt;/font&gt;" style="text;html=1;strokeColor=none;fillColor=none;align=center;verticalAlign=middle;whiteSpace=wrap;rounded=0;fontFamily=Helvetica;fontSize=14;fontColor=#FFFFFF;rotation=0;" vertex="1" parent="1">
          <mxGeometry x="790" y="1410" width="340" height="200" as="geometry" />
        </mxCell>
        <mxCell id="RiJoN2eTmRhTmO86q6G4-1911" value="" style="edgeStyle=none;orthogonalLoop=1;jettySize=auto;html=1;fontFamily=Helvetica;fontSize=14;fontColor=#FFFFFF;startArrow=classic;startFill=0;endArrow=classic;endFill=1;labelBackgroundColor=none;rounded=0;strokeColor=#2F5B7C;shadow=0;strokeWidth=3;exitX=0;exitY=1;exitDx=0;exitDy=0;entryX=1;entryY=0;entryDx=0;entryDy=0;" edge="1" parent="1" source="RiJoN2eTmRhTmO86q6G4-1908" target="RiJoN2eTmRhTmO86q6G4-1910">
          <mxGeometry relative="1" as="geometry" />
        </mxCell>
        <mxCell id="RiJoN2eTmRhTmO86q6G4-2104" value="" style="edgeStyle=none;orthogonalLoop=1;jettySize=auto;html=1;fontFamily=Helvetica;fontSize=14;fontColor=#FFFFFF;startArrow=classic;startFill=0;endArrow=classic;endFill=1;labelBackgroundColor=none;rounded=0;strokeColor=#2F5B7C;shadow=0;strokeWidth=3;" edge="1" parent="1" source="RiJoN2eTmRhTmO86q6G4-1908" target="RiJoN2eTmRhTmO86q6G4-2103">
          <mxGeometry relative="1" as="geometry" />
        </mxCell>
        <mxCell id="RiJoN2eTmRhTmO86q6G4-1908" value="Sewers&lt;br&gt;Lower Midgaard" style="rounded=1;whiteSpace=wrap;html=1;shadow=0;labelBackgroundColor=none;strokeColor=none;strokeWidth=3;fillColor=#2F5B7C;fontFamily=Helvetica;fontSize=16;fontColor=#FFFFFF;align=center;fontStyle=1;spacing=5;arcSize=7;perimeterSpacing=2;" vertex="1" parent="1">
          <mxGeometry x="120" y="976" width="145" height="64" as="geometry" />
        </mxCell>
        <mxCell id="RiJoN2eTmRhTmO86q6G4-1909" value="" style="endArrow=classic;startArrow=classic;html=1;fontFamily=Helvetica;fontSize=14;fontColor=#FFFFFF;entryX=0;entryY=1;entryDx=0;entryDy=0;exitX=1;exitY=0;exitDx=0;exitDy=0;labelBackgroundColor=none;rounded=0;strokeColor=#B013AB;startFill=0;endFill=1;shadow=0;strokeWidth=3;" edge="1" parent="1" source="RiJoN2eTmRhTmO86q6G4-1908" target="1749">
          <mxGeometry width="50" height="50" relative="1" as="geometry">
            <mxPoint x="560" y="1030" as="sourcePoint" />
            <mxPoint x="610" y="980" as="targetPoint" />
          </mxGeometry>
        </mxCell>
        <mxCell id="RiJoN2eTmRhTmO86q6G4-1910" value="Underdark" style="rounded=1;whiteSpace=wrap;html=1;shadow=0;labelBackgroundColor=none;strokeColor=none;strokeWidth=3;fillColor=#2F5B7C;fontFamily=Helvetica;fontSize=16;fontColor=#FFFFFF;align=center;fontStyle=1;spacing=5;arcSize=7;perimeterSpacing=2;" vertex="1" parent="1">
          <mxGeometry x="-90" y="1096" width="145" height="64" as="geometry" />
        </mxCell>
        <mxCell id="RiJoN2eTmRhTmO86q6G4-1913" value="Lair of the Beast" style="rounded=1;whiteSpace=wrap;html=1;shadow=0;labelBackgroundColor=none;strokeColor=none;strokeWidth=3;fillColor=#12aab5;fontFamily=Helvetica;fontSize=14;fontColor=#FFFFFF;align=center;spacing=5;fontStyle=1;arcSize=7;perimeterSpacing=2;" vertex="1" parent="1">
          <mxGeometry x="1240" y="1930" width="150" height="60" as="geometry" />
        </mxCell>
        <mxCell id="RiJoN2eTmRhTmO86q6G4-1915" value="" style="endArrow=classic;startArrow=classic;html=1;rounded=0;shadow=0;labelBackgroundColor=none;fontFamily=Helvetica;fontSize=14;fontColor=#FFFFFF;strokeColor=#33FF99;strokeWidth=3;shape=connector;jumpStyle=none;entryX=1;entryY=0.5;entryDx=0;entryDy=0;exitX=0;exitY=0.5;exitDx=0;exitDy=0;" edge="1" parent="1" source="RiJoN2eTmRhTmO86q6G4-1846" target="RiJoN2eTmRhTmO86q6G4-1822">
          <mxGeometry width="50" height="50" relative="1" as="geometry">
            <mxPoint x="1979.000000000001" y="1242.5" as="sourcePoint" />
            <mxPoint x="1642" y="1568" as="targetPoint" />
          </mxGeometry>
        </mxCell>
        <mxCell id="RiJoN2eTmRhTmO86q6G4-1916" value="&lt;i&gt;&lt;font style=&quot;font-size: 15px;&quot;&gt;*quiet sobbing*&lt;/font&gt;&lt;/i&gt;" style="text;html=1;strokeColor=none;fillColor=none;align=center;verticalAlign=middle;whiteSpace=wrap;rounded=0;fontFamily=Helvetica;fontSize=72;fontColor=#000000;" vertex="1" parent="1">
          <mxGeometry x="1670" y="1610" width="130" height="50" as="geometry" />
        </mxCell>
        <mxCell id="RiJoN2eTmRhTmO86q6G4-1918" value="Forest of Norwood" style="rounded=1;whiteSpace=wrap;html=1;shadow=0;labelBackgroundColor=none;strokeColor=none;strokeWidth=3;fillColor=#12aab5;fontFamily=Helvetica;fontSize=14;fontColor=#FFFFFF;align=center;spacing=5;fontStyle=1;arcSize=7;perimeterSpacing=2;" vertex="1" parent="1">
          <mxGeometry x="1480" y="1420" width="150" height="60" as="geometry" />
        </mxCell>
        <mxCell id="RiJoN2eTmRhTmO86q6G4-1920" value="" style="curved=1;endArrow=classic;html=1;fontFamily=Helvetica;fontSize=14;fontColor=#FFFFFF;exitX=0.5;exitY=1;exitDx=0;exitDy=0;entryX=0.5;entryY=1;entryDx=0;entryDy=0;labelBackgroundColor=none;rounded=0;strokeColor=#FF66FF;startArrow=classic;shadow=0;strokeWidth=3;" edge="1" parent="1" source="RiJoN2eTmRhTmO86q6G4-1910" target="RiJoN2eTmRhTmO86q6G4-1838">
          <mxGeometry width="50" height="50" relative="1" as="geometry">
            <mxPoint x="120" y="1320" as="sourcePoint" />
            <mxPoint x="170" y="1270" as="targetPoint" />
            <Array as="points">
              <mxPoint x="270" y="1420" />
              <mxPoint x="600" y="1370" />
            </Array>
          </mxGeometry>
        </mxCell>
        <mxCell id="RiJoN2eTmRhTmO86q6G4-1921" value="" style="curved=1;endArrow=classic;html=1;fontFamily=Helvetica;fontSize=15;fontColor=#000000;exitX=0.5;exitY=0;exitDx=0;exitDy=0;entryX=0;entryY=1;entryDx=0;entryDy=0;strokeColor=#00CC00;strokeWidth=3;" edge="1" parent="1" source="RiJoN2eTmRhTmO86q6G4-1910" target="RiJoN2eTmRhTmO86q6G4-1795">
          <mxGeometry width="50" height="50" relative="1" as="geometry">
            <mxPoint x="-10" y="1080" as="sourcePoint" />
            <mxPoint x="40" y="1030" as="targetPoint" />
            <Array as="points">
              <mxPoint x="-17" y="1030" />
              <mxPoint x="550" y="1070" />
            </Array>
          </mxGeometry>
        </mxCell>
        <mxCell id="RiJoN2eTmRhTmO86q6G4-1922" value="Kobold War Camp" style="rounded=1;whiteSpace=wrap;html=1;shadow=0;labelBackgroundColor=none;strokeColor=none;strokeWidth=3;fillColor=#1699d3;fontFamily=Helvetica;fontSize=14;fontColor=#FFFFFF;align=center;spacing=5;fontStyle=1;arcSize=7;perimeterSpacing=2;" vertex="1" parent="1">
          <mxGeometry x="390" y="2165" width="150" height="50" as="geometry" />
        </mxCell>
        <mxCell id="RiJoN2eTmRhTmO86q6G4-1924" value="Valhalla Clan" style="rounded=1;whiteSpace=wrap;html=1;shadow=0;labelBackgroundColor=none;strokeColor=none;strokeWidth=3;fillColor=#1699d3;fontFamily=Helvetica;fontSize=14;fontColor=#FFFFFF;align=center;spacing=5;fontStyle=1;arcSize=7;perimeterSpacing=2;" vertex="1" parent="1">
          <mxGeometry x="570" y="2160" width="140" height="50" as="geometry" />
        </mxCell>
        <mxCell id="RiJoN2eTmRhTmO86q6G4-1926" value="Faerie Ring" style="rounded=1;whiteSpace=wrap;html=1;shadow=0;labelBackgroundColor=none;strokeColor=none;strokeWidth=3;fillColor=#1699d3;fontFamily=Helvetica;fontSize=14;fontColor=#FFFFFF;align=center;spacing=5;fontStyle=1;arcSize=7;perimeterSpacing=2;" vertex="1" parent="1">
          <mxGeometry x="725" y="1980" width="150" height="60" as="geometry" />
        </mxCell>
        <mxCell id="RiJoN2eTmRhTmO86q6G4-1931" value="" style="edgeStyle=none;orthogonalLoop=1;jettySize=auto;html=1;fontFamily=Helvetica;fontSize=14;fontColor=#FFFFFF;startArrow=classic;startFill=0;endArrow=classic;endFill=1;labelBackgroundColor=none;rounded=0;strokeColor=#2F5B7C;shadow=0;strokeWidth=3;" edge="1" parent="1" source="RiJoN2eTmRhTmO86q6G4-1928" target="RiJoN2eTmRhTmO86q6G4-1930">
          <mxGeometry relative="1" as="geometry" />
        </mxCell>
        <mxCell id="RiJoN2eTmRhTmO86q6G4-1933" value="" style="edgeStyle=none;orthogonalLoop=1;jettySize=auto;html=1;fontFamily=Helvetica;fontSize=14;fontColor=#FFFFFF;startArrow=classic;startFill=0;endArrow=classic;endFill=1;labelBackgroundColor=none;rounded=0;strokeColor=#2F5B7C;shadow=0;strokeWidth=3;" edge="1" parent="1" source="RiJoN2eTmRhTmO86q6G4-1928" target="RiJoN2eTmRhTmO86q6G4-1932">
          <mxGeometry relative="1" as="geometry" />
        </mxCell>
        <mxCell id="RiJoN2eTmRhTmO86q6G4-1939" value="" style="edgeStyle=none;orthogonalLoop=1;jettySize=auto;html=1;fontFamily=Helvetica;fontSize=14;fontColor=#FFFFFF;startArrow=classic;startFill=0;endArrow=classic;endFill=1;labelBackgroundColor=none;rounded=0;strokeColor=#2F5B7C;shadow=0;strokeWidth=3;" edge="1" parent="1" source="RiJoN2eTmRhTmO86q6G4-1928" target="RiJoN2eTmRhTmO86q6G4-1938">
          <mxGeometry relative="1" as="geometry" />
        </mxCell>
        <mxCell id="RiJoN2eTmRhTmO86q6G4-1928" value="Eastern Road&lt;br&gt;(Miden&#39;nir)" style="rounded=1;whiteSpace=wrap;html=1;shadow=0;labelBackgroundColor=none;strokeColor=none;strokeWidth=3;fillColor=#12aab5;fontFamily=Helvetica;fontSize=14;fontColor=#FFFFFF;align=center;spacing=5;fontStyle=1;arcSize=7;perimeterSpacing=2;" vertex="1" parent="1">
          <mxGeometry x="2650" y="385.4999999999999" width="150" height="60" as="geometry" />
        </mxCell>
        <mxCell id="RiJoN2eTmRhTmO86q6G4-1930" value="GarDun Bunker" style="rounded=1;whiteSpace=wrap;html=1;shadow=0;labelBackgroundColor=none;strokeColor=none;strokeWidth=3;fillColor=#12aab5;fontFamily=Helvetica;fontSize=14;fontColor=#FFFFFF;align=center;spacing=5;fontStyle=1;arcSize=7;perimeterSpacing=2;" vertex="1" parent="1">
          <mxGeometry x="2650" y="525.4999999999999" width="150" height="60" as="geometry" />
        </mxCell>
        <mxCell id="RiJoN2eTmRhTmO86q6G4-1935" value="" style="edgeStyle=none;orthogonalLoop=1;jettySize=auto;html=1;fontFamily=Helvetica;fontSize=14;fontColor=#FFFFFF;startArrow=classic;startFill=0;endArrow=classic;endFill=1;labelBackgroundColor=none;rounded=0;strokeColor=#2F5B7C;shadow=0;strokeWidth=3;" edge="1" parent="1" source="RiJoN2eTmRhTmO86q6G4-1932" target="RiJoN2eTmRhTmO86q6G4-1934">
          <mxGeometry relative="1" as="geometry" />
        </mxCell>
        <mxCell id="RiJoN2eTmRhTmO86q6G4-1937" value="" style="edgeStyle=none;orthogonalLoop=1;jettySize=auto;html=1;fontFamily=Helvetica;fontSize=14;fontColor=#FFFFFF;startArrow=classic;startFill=0;endArrow=classic;endFill=1;labelBackgroundColor=none;rounded=0;strokeColor=#2F5B7C;shadow=0;strokeWidth=3;" edge="1" parent="1" source="RiJoN2eTmRhTmO86q6G4-1932" target="RiJoN2eTmRhTmO86q6G4-1936">
          <mxGeometry relative="1" as="geometry" />
        </mxCell>
        <mxCell id="RiJoN2eTmRhTmO86q6G4-1932" value="Shielding" style="rounded=1;whiteSpace=wrap;html=1;shadow=0;labelBackgroundColor=none;strokeColor=none;strokeWidth=3;fillColor=#12aab5;fontFamily=Helvetica;fontSize=14;fontColor=#FFFFFF;align=center;spacing=5;fontStyle=1;arcSize=7;perimeterSpacing=2;" vertex="1" parent="1">
          <mxGeometry x="2650" y="245.4999999999999" width="150" height="60" as="geometry" />
        </mxCell>
        <mxCell id="RiJoN2eTmRhTmO86q6G4-1934" value="Shielding" style="rounded=1;whiteSpace=wrap;html=1;shadow=0;labelBackgroundColor=none;strokeColor=none;strokeWidth=3;fillColor=#12aab5;fontFamily=Helvetica;fontSize=14;fontColor=#FFFFFF;align=center;spacing=5;fontStyle=1;arcSize=7;perimeterSpacing=2;" vertex="1" parent="1">
          <mxGeometry x="2650" y="105.49999999999989" width="150" height="60" as="geometry" />
        </mxCell>
        <mxCell id="RiJoN2eTmRhTmO86q6G4-1936" value="Temple of Tamo" style="rounded=1;whiteSpace=wrap;html=1;shadow=0;labelBackgroundColor=none;strokeColor=none;strokeWidth=3;fillColor=#12aab5;fontFamily=Helvetica;fontSize=14;fontColor=#FFFFFF;align=center;spacing=5;fontStyle=1;arcSize=7;perimeterSpacing=2;" vertex="1" parent="1">
          <mxGeometry x="2880" y="245.4999999999999" width="150" height="60" as="geometry" />
        </mxCell>
        <mxCell id="RiJoN2eTmRhTmO86q6G4-1941" value="" style="edgeStyle=none;orthogonalLoop=1;jettySize=auto;html=1;fontFamily=Helvetica;fontSize=14;fontColor=#FFFFFF;startArrow=classic;startFill=0;endArrow=classic;endFill=1;labelBackgroundColor=none;rounded=0;strokeColor=#2F5B7C;shadow=0;strokeWidth=3;exitX=0.5;exitY=1;exitDx=0;exitDy=0;" edge="1" parent="1" source="RiJoN2eTmRhTmO86q6G4-1938" target="RiJoN2eTmRhTmO86q6G4-1940">
          <mxGeometry relative="1" as="geometry" />
        </mxCell>
        <mxCell id="RiJoN2eTmRhTmO86q6G4-1938" value="Sands of Sorrow" style="rounded=1;whiteSpace=wrap;html=1;shadow=0;labelBackgroundColor=none;strokeColor=none;strokeWidth=3;fillColor=#12aab5;fontFamily=Helvetica;fontSize=14;fontColor=#FFFFFF;align=center;spacing=5;fontStyle=1;arcSize=7;perimeterSpacing=2;" vertex="1" parent="1">
          <mxGeometry x="3070" y="383.9999999999999" width="150" height="60" as="geometry" />
        </mxCell>
        <mxCell id="RiJoN2eTmRhTmO86q6G4-1943" value="" style="edgeStyle=none;orthogonalLoop=1;jettySize=auto;html=1;fontFamily=Helvetica;fontSize=14;fontColor=#FFFFFF;startArrow=classic;startFill=0;endArrow=classic;endFill=1;labelBackgroundColor=none;rounded=0;strokeColor=#2F5B7C;shadow=0;strokeWidth=3;" edge="1" parent="1" source="RiJoN2eTmRhTmO86q6G4-1940" target="RiJoN2eTmRhTmO86q6G4-1942">
          <mxGeometry relative="1" as="geometry" />
        </mxCell>
        <mxCell id="RiJoN2eTmRhTmO86q6G4-1945" value="" style="edgeStyle=none;orthogonalLoop=1;jettySize=auto;html=1;fontFamily=Helvetica;fontSize=14;fontColor=#FFFFFF;startArrow=classic;startFill=0;endArrow=classic;endFill=1;labelBackgroundColor=none;rounded=0;strokeColor=#2F5B7C;shadow=0;strokeWidth=3;" edge="1" parent="1" source="RiJoN2eTmRhTmO86q6G4-1940" target="RiJoN2eTmRhTmO86q6G4-1944">
          <mxGeometry relative="1" as="geometry" />
        </mxCell>
        <mxCell id="RiJoN2eTmRhTmO86q6G4-1940" value="Sands of Sorrow" style="rounded=1;whiteSpace=wrap;html=1;shadow=0;labelBackgroundColor=none;strokeColor=none;strokeWidth=3;fillColor=#12aab5;fontFamily=Helvetica;fontSize=14;fontColor=#FFFFFF;align=center;spacing=5;fontStyle=1;arcSize=7;perimeterSpacing=2;" vertex="1" parent="1">
          <mxGeometry x="3070" y="525.4999999999999" width="150" height="60" as="geometry" />
        </mxCell>
        <mxCell id="RiJoN2eTmRhTmO86q6G4-1942" value="The Pyramid" style="rounded=1;whiteSpace=wrap;html=1;shadow=0;labelBackgroundColor=none;strokeColor=none;strokeWidth=3;fillColor=#12aab5;fontFamily=Helvetica;fontSize=14;fontColor=#FFFFFF;align=center;spacing=5;fontStyle=1;arcSize=7;perimeterSpacing=2;" vertex="1" parent="1">
          <mxGeometry x="3300" y="525.4999999999999" width="150" height="60" as="geometry" />
        </mxCell>
        <mxCell id="RiJoN2eTmRhTmO86q6G4-1948" value="" style="edgeStyle=none;orthogonalLoop=1;jettySize=auto;html=1;fontFamily=Helvetica;fontSize=14;fontColor=#FFFFFF;startArrow=classic;startFill=0;endArrow=classic;endFill=1;labelBackgroundColor=none;rounded=0;strokeColor=#2F5B7C;shadow=0;strokeWidth=3;" edge="1" parent="1" source="RiJoN2eTmRhTmO86q6G4-1944" target="RiJoN2eTmRhTmO86q6G4-1947">
          <mxGeometry relative="1" as="geometry">
            <Array as="points">
              <mxPoint x="3140" y="960" />
            </Array>
          </mxGeometry>
        </mxCell>
        <mxCell id="RiJoN2eTmRhTmO86q6G4-1944" value="Landareth" style="rounded=1;whiteSpace=wrap;html=1;shadow=0;labelBackgroundColor=none;strokeColor=none;strokeWidth=3;fillColor=#12aab5;fontFamily=Helvetica;fontSize=14;fontColor=#FFFFFF;align=center;spacing=5;fontStyle=1;arcSize=7;perimeterSpacing=2;" vertex="1" parent="1">
          <mxGeometry x="3070" y="759.9999999999999" width="150" height="60" as="geometry" />
        </mxCell>
        <mxCell id="RiJoN2eTmRhTmO86q6G4-1946" value="" style="edgeStyle=none;orthogonalLoop=1;jettySize=auto;html=1;fontFamily=Helvetica;fontSize=14;fontColor=#FFFFFF;startArrow=classic;startFill=0;endArrow=classic;endFill=1;labelBackgroundColor=none;rounded=0;strokeColor=#2F5B7C;shadow=0;strokeWidth=3;exitX=1;exitY=0.5;exitDx=0;exitDy=0;entryX=0;entryY=0.5;entryDx=0;entryDy=0;" edge="1" parent="1" source="RiJoN2eTmRhTmO86q6G4-1938" target="RiJoN2eTmRhTmO86q6G4-1792">
          <mxGeometry relative="1" as="geometry">
            <mxPoint x="3300.000000000001" y="413.97" as="sourcePoint" />
            <mxPoint x="3376.000000000001" y="413.97" as="targetPoint" />
          </mxGeometry>
        </mxCell>
        <mxCell id="RiJoN2eTmRhTmO86q6G4-1950" value="" style="edgeStyle=none;orthogonalLoop=1;jettySize=auto;html=1;fontFamily=Helvetica;fontSize=14;fontColor=#FFFFFF;startArrow=classic;startFill=0;endArrow=classic;endFill=1;labelBackgroundColor=none;rounded=0;strokeColor=#2F5B7C;shadow=0;strokeWidth=3;" edge="1" parent="1" source="RiJoN2eTmRhTmO86q6G4-1947" target="RiJoN2eTmRhTmO86q6G4-1949">
          <mxGeometry relative="1" as="geometry" />
        </mxCell>
        <mxCell id="RiJoN2eTmRhTmO86q6G4-1947" value="North Harbor" style="rounded=1;whiteSpace=wrap;html=1;shadow=0;labelBackgroundColor=none;strokeColor=none;strokeWidth=3;fillColor=#12aab5;fontFamily=Helvetica;fontSize=14;fontColor=#FFFFFF;align=center;spacing=5;fontStyle=1;arcSize=7;perimeterSpacing=2;" vertex="1" parent="1">
          <mxGeometry x="3505" y="939.9999999999999" width="150" height="60" as="geometry" />
        </mxCell>
        <mxCell id="RiJoN2eTmRhTmO86q6G4-1953" value="" style="edgeStyle=none;orthogonalLoop=1;jettySize=auto;html=1;fontFamily=Helvetica;fontSize=14;fontColor=#FFFFFF;startArrow=classic;startFill=0;endArrow=classic;endFill=1;labelBackgroundColor=none;rounded=0;strokeColor=#2F5B7C;shadow=0;strokeWidth=3;" edge="1" parent="1" source="RiJoN2eTmRhTmO86q6G4-1949" target="RiJoN2eTmRhTmO86q6G4-1952">
          <mxGeometry relative="1" as="geometry" />
        </mxCell>
        <mxCell id="RiJoN2eTmRhTmO86q6G4-1949" value="North Harbor" style="rounded=1;whiteSpace=wrap;html=1;shadow=0;labelBackgroundColor=none;strokeColor=none;strokeWidth=3;fillColor=#12aab5;fontFamily=Helvetica;fontSize=14;fontColor=#FFFFFF;align=center;spacing=5;fontStyle=1;arcSize=7;perimeterSpacing=2;" vertex="1" parent="1">
          <mxGeometry x="3505" y="799.9999999999999" width="150" height="60" as="geometry" />
        </mxCell>
        <mxCell id="RiJoN2eTmRhTmO86q6G4-1951" value="" style="edgeStyle=none;orthogonalLoop=1;jettySize=auto;html=1;fontFamily=Helvetica;fontSize=14;fontColor=#FFFFFF;startArrow=classic;startFill=0;endArrow=classic;endFill=1;labelBackgroundColor=none;rounded=0;strokeColor=#2F5B7C;shadow=0;strokeWidth=3;exitX=0.5;exitY=1;exitDx=0;exitDy=0;entryX=0.5;entryY=0;entryDx=0;entryDy=0;" edge="1" parent="1" source="RiJoN2eTmRhTmO86q6G4-1792" target="RiJoN2eTmRhTmO86q6G4-1949">
          <mxGeometry relative="1" as="geometry">
            <mxPoint x="3242.000000000001" y="575.5" as="sourcePoint" />
            <mxPoint x="3318.000000000001" y="575.5" as="targetPoint" />
          </mxGeometry>
        </mxCell>
        <mxCell id="RiJoN2eTmRhTmO86q6G4-1952" value="Whispers Dale" style="rounded=1;whiteSpace=wrap;html=1;shadow=0;labelBackgroundColor=none;strokeColor=none;strokeWidth=3;fillColor=#12aab5;fontFamily=Helvetica;fontSize=14;fontColor=#FFFFFF;align=center;spacing=5;fontStyle=1;arcSize=7;perimeterSpacing=2;" vertex="1" parent="1">
          <mxGeometry x="3735" y="799.9999999999999" width="150" height="60" as="geometry" />
        </mxCell>
        <mxCell id="RiJoN2eTmRhTmO86q6G4-1957" value="" style="edgeStyle=none;orthogonalLoop=1;jettySize=auto;html=1;fontFamily=Helvetica;fontSize=14;fontColor=#FFFFFF;startArrow=classic;startFill=0;endArrow=classic;endFill=1;labelBackgroundColor=none;rounded=0;strokeColor=#2F5B7C;shadow=0;strokeWidth=3;" edge="1" parent="1" source="RiJoN2eTmRhTmO86q6G4-1954" target="RiJoN2eTmRhTmO86q6G4-1956">
          <mxGeometry relative="1" as="geometry" />
        </mxCell>
        <mxCell id="RiJoN2eTmRhTmO86q6G4-1959" value="" style="edgeStyle=none;orthogonalLoop=1;jettySize=auto;html=1;fontFamily=Helvetica;fontSize=14;fontColor=#FFFFFF;startArrow=classic;startFill=0;endArrow=classic;endFill=1;labelBackgroundColor=none;rounded=0;strokeColor=#2F5B7C;shadow=0;strokeWidth=3;" edge="1" parent="1" source="RiJoN2eTmRhTmO86q6G4-1954" target="RiJoN2eTmRhTmO86q6G4-1958">
          <mxGeometry relative="1" as="geometry" />
        </mxCell>
        <mxCell id="RiJoN2eTmRhTmO86q6G4-1954" value="West Great Ocean" style="rounded=1;whiteSpace=wrap;html=1;fontFamily=Helvetica;fontSize=14;fontColor=#FFFFFF;fillColor=#12aab5;strokeColor=none;shadow=0;labelBackgroundColor=none;strokeWidth=3;spacing=5;fontStyle=1;arcSize=7;" vertex="1" parent="1">
          <mxGeometry x="4240" y="385.5" width="120" height="60" as="geometry" />
        </mxCell>
        <mxCell id="RiJoN2eTmRhTmO86q6G4-1956" value="West Great Ocean" style="rounded=1;whiteSpace=wrap;html=1;fontFamily=Helvetica;fontSize=14;fontColor=#FFFFFF;fillColor=#12aab5;strokeColor=none;shadow=0;labelBackgroundColor=none;strokeWidth=3;spacing=5;fontStyle=1;arcSize=7;" vertex="1" parent="1">
          <mxGeometry x="4440" y="385.5" width="120" height="60" as="geometry" />
        </mxCell>
        <mxCell id="RiJoN2eTmRhTmO86q6G4-1961" value="" style="edgeStyle=none;orthogonalLoop=1;jettySize=auto;html=1;fontFamily=Helvetica;fontSize=14;fontColor=#FFFFFF;startArrow=classic;startFill=0;endArrow=classic;endFill=1;labelBackgroundColor=none;rounded=0;strokeColor=#2F5B7C;shadow=0;strokeWidth=3;" edge="1" parent="1" source="RiJoN2eTmRhTmO86q6G4-1958" target="RiJoN2eTmRhTmO86q6G4-1960">
          <mxGeometry relative="1" as="geometry" />
        </mxCell>
        <mxCell id="RiJoN2eTmRhTmO86q6G4-1958" value="West Great Ocean" style="rounded=1;whiteSpace=wrap;html=1;fontFamily=Helvetica;fontSize=14;fontColor=#FFFFFF;fillColor=#12aab5;strokeColor=none;shadow=0;labelBackgroundColor=none;strokeWidth=3;spacing=5;fontStyle=1;arcSize=7;" vertex="1" parent="1">
          <mxGeometry x="4240" y="525.5" width="120" height="60" as="geometry" />
        </mxCell>
        <mxCell id="RiJoN2eTmRhTmO86q6G4-1967" value="" style="edgeStyle=none;orthogonalLoop=1;jettySize=auto;html=1;fontFamily=Helvetica;fontSize=14;fontColor=#FFFFFF;startArrow=classic;startFill=0;endArrow=classic;endFill=1;labelBackgroundColor=none;rounded=0;strokeColor=#2F5B7C;shadow=0;strokeWidth=3;" edge="1" parent="1" source="RiJoN2eTmRhTmO86q6G4-1960" target="RiJoN2eTmRhTmO86q6G4-1966">
          <mxGeometry relative="1" as="geometry" />
        </mxCell>
        <mxCell id="RiJoN2eTmRhTmO86q6G4-1960" value="Island of Terror" style="rounded=1;whiteSpace=wrap;html=1;fontFamily=Helvetica;fontSize=14;fontColor=#FFFFFF;fillColor=#12aab5;strokeColor=none;shadow=0;labelBackgroundColor=none;strokeWidth=3;spacing=5;fontStyle=1;arcSize=7;" vertex="1" parent="1">
          <mxGeometry x="4440" y="525.5" width="120" height="60" as="geometry" />
        </mxCell>
        <mxCell id="RiJoN2eTmRhTmO86q6G4-1962" value="West Great Ocean" style="ellipse;whiteSpace=wrap;html=1;fontSize=14;fillColor=#12aab5;strokeColor=none;fontColor=#FFFFFF;rounded=1;shadow=0;labelBackgroundColor=none;strokeWidth=3;spacing=5;fontStyle=1;arcSize=7;" vertex="1" parent="1">
          <mxGeometry x="4240" y="385.5" width="120" height="60" as="geometry" />
        </mxCell>
        <mxCell id="RiJoN2eTmRhTmO86q6G4-1965" value="" style="edgeStyle=none;orthogonalLoop=1;jettySize=auto;html=1;fontFamily=Helvetica;fontSize=14;fontColor=#FFFFFF;startArrow=classic;startFill=0;endArrow=classic;endFill=1;exitX=0.5;exitY=0;exitDx=0;exitDy=0;entryX=0.5;entryY=1;entryDx=0;entryDy=0;labelBackgroundColor=none;rounded=0;strokeColor=#2F5B7C;shadow=0;strokeWidth=3;" edge="1" parent="1" source="RiJoN2eTmRhTmO86q6G4-1960" target="RiJoN2eTmRhTmO86q6G4-1956">
          <mxGeometry relative="1" as="geometry">
            <mxPoint x="4450" y="425.5" as="sourcePoint" />
            <mxPoint x="4370" y="425.5" as="targetPoint" />
          </mxGeometry>
        </mxCell>
        <mxCell id="RiJoN2eTmRhTmO86q6G4-1987" value="" style="edgeStyle=none;orthogonalLoop=1;jettySize=auto;html=1;fontFamily=Helvetica;fontSize=14;fontColor=#FFFFFF;startArrow=classic;startFill=0;endArrow=classic;endFill=1;labelBackgroundColor=none;rounded=0;strokeColor=#2F5B7C;shadow=0;strokeWidth=3;" edge="1" parent="1" source="RiJoN2eTmRhTmO86q6G4-1966" target="RiJoN2eTmRhTmO86q6G4-1986">
          <mxGeometry relative="1" as="geometry" />
        </mxCell>
        <mxCell id="RiJoN2eTmRhTmO86q6G4-1989" value="" style="edgeStyle=none;orthogonalLoop=1;jettySize=auto;html=1;fontFamily=Helvetica;fontSize=14;fontColor=#FFFFFF;startArrow=classic;startFill=0;endArrow=classic;endFill=1;labelBackgroundColor=none;rounded=0;strokeColor=#2F5B7C;shadow=0;strokeWidth=3;" edge="1" parent="1" source="RiJoN2eTmRhTmO86q6G4-1966" target="RiJoN2eTmRhTmO86q6G4-1988">
          <mxGeometry relative="1" as="geometry" />
        </mxCell>
        <mxCell id="RiJoN2eTmRhTmO86q6G4-1966" value="Dragon Sea" style="rounded=1;whiteSpace=wrap;html=1;fontFamily=Helvetica;fontSize=14;fontColor=#FFFFFF;fillColor=#12aab5;strokeColor=none;shadow=0;labelBackgroundColor=none;strokeWidth=3;spacing=5;fontStyle=1;arcSize=7;" vertex="1" parent="1">
          <mxGeometry x="4640" y="525.5" width="120" height="60" as="geometry" />
        </mxCell>
        <mxCell id="RiJoN2eTmRhTmO86q6G4-1971" value="" style="edgeStyle=none;orthogonalLoop=1;jettySize=auto;html=1;fontFamily=Helvetica;fontSize=14;fontColor=#FFFFFF;startArrow=classic;startFill=0;endArrow=classic;endFill=1;labelBackgroundColor=none;rounded=0;strokeColor=#2F5B7C;shadow=0;strokeWidth=3;" edge="1" parent="1" source="RiJoN2eTmRhTmO86q6G4-1968" target="RiJoN2eTmRhTmO86q6G4-1970">
          <mxGeometry relative="1" as="geometry" />
        </mxCell>
        <mxCell id="RiJoN2eTmRhTmO86q6G4-1973" value="" style="edgeStyle=none;orthogonalLoop=1;jettySize=auto;html=1;fontFamily=Helvetica;fontSize=14;fontColor=#FFFFFF;startArrow=classic;startFill=0;endArrow=classic;endFill=1;labelBackgroundColor=none;rounded=0;strokeColor=#2F5B7C;shadow=0;strokeWidth=3;" edge="1" parent="1" source="RiJoN2eTmRhTmO86q6G4-1968" target="RiJoN2eTmRhTmO86q6G4-1972">
          <mxGeometry relative="1" as="geometry" />
        </mxCell>
        <mxCell id="RiJoN2eTmRhTmO86q6G4-1968" value="New Thalos" style="rounded=1;whiteSpace=wrap;html=1;fontFamily=Helvetica;fontSize=14;fontColor=#FFFFFF;fillColor=#12aab5;strokeColor=none;shadow=0;labelBackgroundColor=none;strokeWidth=3;spacing=5;fontStyle=1;arcSize=7;" vertex="1" parent="1">
          <mxGeometry x="3520" y="244" width="120" height="60" as="geometry" />
        </mxCell>
        <mxCell id="RiJoN2eTmRhTmO86q6G4-1975" value="" style="edgeStyle=none;orthogonalLoop=1;jettySize=auto;html=1;fontFamily=Helvetica;fontSize=14;fontColor=#FFFFFF;startArrow=classic;startFill=0;endArrow=classic;endFill=1;labelBackgroundColor=none;rounded=0;strokeColor=#2F5B7C;shadow=0;strokeWidth=3;" edge="1" parent="1" source="RiJoN2eTmRhTmO86q6G4-1970" target="RiJoN2eTmRhTmO86q6G4-1974">
          <mxGeometry relative="1" as="geometry" />
        </mxCell>
        <mxCell id="RiJoN2eTmRhTmO86q6G4-1970" value="New Thalos" style="rounded=1;whiteSpace=wrap;html=1;fontFamily=Helvetica;fontSize=14;fontColor=#FFFFFF;fillColor=#12aab5;strokeColor=none;shadow=0;labelBackgroundColor=none;strokeWidth=3;spacing=5;fontStyle=1;arcSize=7;" vertex="1" parent="1">
          <mxGeometry x="3520" y="-590" width="120" height="60" as="geometry" />
        </mxCell>
        <mxCell id="RiJoN2eTmRhTmO86q6G4-1972" value="Kil&#39;kerny" style="rounded=1;whiteSpace=wrap;html=1;fontFamily=Helvetica;fontSize=14;fontColor=#FFFFFF;fillColor=#12aab5;strokeColor=none;shadow=0;labelBackgroundColor=none;strokeWidth=3;spacing=5;fontStyle=1;arcSize=7;" vertex="1" parent="1">
          <mxGeometry x="3720" y="244" width="120" height="60" as="geometry" />
        </mxCell>
        <mxCell id="RiJoN2eTmRhTmO86q6G4-1977" value="" style="edgeStyle=none;orthogonalLoop=1;jettySize=auto;html=1;fontFamily=Helvetica;fontSize=14;fontColor=#FFFFFF;startArrow=classic;startFill=0;endArrow=classic;endFill=1;labelBackgroundColor=none;rounded=0;strokeColor=#2F5B7C;shadow=0;strokeWidth=3;exitX=0;exitY=1;exitDx=0;exitDy=0;" edge="1" parent="1" source="RiJoN2eTmRhTmO86q6G4-1974" target="RiJoN2eTmRhTmO86q6G4-1976">
          <mxGeometry relative="1" as="geometry" />
        </mxCell>
        <mxCell id="RiJoN2eTmRhTmO86q6G4-1974" value="Arethuse" style="rounded=1;whiteSpace=wrap;html=1;fontFamily=Helvetica;fontSize=14;fontColor=#FFFFFF;fillColor=#12aab5;strokeColor=none;shadow=0;labelBackgroundColor=none;strokeWidth=3;spacing=5;fontStyle=1;arcSize=7;" vertex="1" parent="1">
          <mxGeometry x="3940" y="-590" width="120" height="60" as="geometry" />
        </mxCell>
        <mxCell id="RiJoN2eTmRhTmO86q6G4-1976" value="FleshEaters Temple" style="rounded=1;whiteSpace=wrap;html=1;fontFamily=Helvetica;fontSize=14;fontColor=#FFFFFF;fillColor=#12aab5;strokeColor=none;shadow=0;labelBackgroundColor=none;strokeWidth=3;spacing=5;fontStyle=1;arcSize=7;" vertex="1" parent="1">
          <mxGeometry x="3780" y="-450" width="120" height="60" as="geometry" />
        </mxCell>
        <mxCell id="RiJoN2eTmRhTmO86q6G4-2077" value="" style="edgeStyle=none;orthogonalLoop=1;jettySize=auto;html=1;fontFamily=Helvetica;fontSize=14;fontColor=#FFFFFF;startArrow=classic;startFill=0;endArrow=classic;endFill=1;labelBackgroundColor=none;rounded=0;strokeColor=#2F5B7C;shadow=0;strokeWidth=3;" edge="1" parent="1" source="RiJoN2eTmRhTmO86q6G4-1978" target="RiJoN2eTmRhTmO86q6G4-2076">
          <mxGeometry relative="1" as="geometry" />
        </mxCell>
        <mxCell id="RiJoN2eTmRhTmO86q6G4-2079" value="" style="edgeStyle=none;orthogonalLoop=1;jettySize=auto;html=1;fontFamily=Helvetica;fontSize=15;fontColor=#000000;startArrow=classic;startFill=0;endArrow=classic;endFill=1;" edge="1" parent="1" source="RiJoN2eTmRhTmO86q6G4-1978" target="RiJoN2eTmRhTmO86q6G4-2078">
          <mxGeometry relative="1" as="geometry" />
        </mxCell>
        <mxCell id="RiJoN2eTmRhTmO86q6G4-1978" value="Plains" style="rounded=1;whiteSpace=wrap;html=1;shadow=0;labelBackgroundColor=none;strokeColor=none;strokeWidth=3;fillColor=#F08705;fontFamily=Helvetica;fontSize=14;fontColor=#FFFFFF;align=center;spacing=5;fontStyle=1;arcSize=7;perimeterSpacing=2;" vertex="1" parent="1">
          <mxGeometry x="500" y="-790" width="150" height="60" as="geometry" />
        </mxCell>
        <mxCell id="RiJoN2eTmRhTmO86q6G4-1983" value="" style="edgeStyle=none;orthogonalLoop=1;jettySize=auto;html=1;fontFamily=Helvetica;fontSize=14;fontColor=#FFFFFF;startArrow=classic;startFill=0;endArrow=classic;endFill=1;labelBackgroundColor=none;rounded=0;strokeColor=#2F5B7C;shadow=0;strokeWidth=3;" edge="1" parent="1" source="RiJoN2eTmRhTmO86q6G4-1980" target="RiJoN2eTmRhTmO86q6G4-1982">
          <mxGeometry relative="1" as="geometry" />
        </mxCell>
        <mxCell id="RiJoN2eTmRhTmO86q6G4-1980" value="Plains" style="rounded=1;whiteSpace=wrap;html=1;shadow=0;labelBackgroundColor=none;strokeColor=none;strokeWidth=3;fillColor=#F08705;fontFamily=Helvetica;fontSize=14;fontColor=#FFFFFF;align=center;spacing=5;fontStyle=1;arcSize=7;perimeterSpacing=2;" vertex="1" parent="1">
          <mxGeometry x="730" y="-1050" width="150" height="60" as="geometry" />
        </mxCell>
        <mxCell id="RiJoN2eTmRhTmO86q6G4-1982" value="Eltabbar" style="rounded=1;whiteSpace=wrap;html=1;shadow=0;labelBackgroundColor=none;strokeColor=none;strokeWidth=3;fillColor=#F08705;fontFamily=Helvetica;fontSize=14;fontColor=#FFFFFF;align=center;spacing=5;fontStyle=1;arcSize=7;perimeterSpacing=2;" vertex="1" parent="1">
          <mxGeometry x="730" y="-1180" width="150" height="60" as="geometry" />
        </mxCell>
        <mxCell id="RiJoN2eTmRhTmO86q6G4-1985" value="" style="endArrow=classic;startArrow=classic;html=1;fontFamily=Helvetica;fontSize=14;fontColor=#FFFFFF;entryX=0;entryY=0.5;entryDx=0;entryDy=0;labelBackgroundColor=none;rounded=0;strokeColor=#FF66FF;startFill=0;endFill=1;shadow=0;strokeWidth=3;exitX=1;exitY=0.5;exitDx=0;exitDy=0;" edge="1" parent="1" source="RiJoN2eTmRhTmO86q6G4-1982" target="RiJoN2eTmRhTmO86q6G4-1976">
          <mxGeometry width="50" height="50" relative="1" as="geometry">
            <mxPoint x="930" y="-420" as="sourcePoint" />
            <mxPoint x="2470" y="-160" as="targetPoint" />
          </mxGeometry>
        </mxCell>
        <mxCell id="RiJoN2eTmRhTmO86q6G4-1995" value="" style="edgeStyle=none;orthogonalLoop=1;jettySize=auto;html=1;fontFamily=Helvetica;fontSize=14;fontColor=#FFFFFF;startArrow=classic;startFill=0;endArrow=classic;endFill=1;labelBackgroundColor=none;rounded=0;strokeColor=#2F5B7C;shadow=0;strokeWidth=3;exitX=1;exitY=0;exitDx=0;exitDy=0;" edge="1" parent="1" source="RiJoN2eTmRhTmO86q6G4-1986" target="RiJoN2eTmRhTmO86q6G4-1994">
          <mxGeometry relative="1" as="geometry" />
        </mxCell>
        <mxCell id="RiJoN2eTmRhTmO86q6G4-1986" value="Dragon Sea" style="rounded=1;whiteSpace=wrap;html=1;fontFamily=Helvetica;fontSize=14;fontColor=#FFFFFF;fillColor=#12aab5;strokeColor=none;shadow=0;labelBackgroundColor=none;strokeWidth=3;spacing=5;fontStyle=1;arcSize=7;" vertex="1" parent="1">
          <mxGeometry x="4640" y="385.5" width="120" height="60" as="geometry" />
        </mxCell>
        <mxCell id="RiJoN2eTmRhTmO86q6G4-1991" value="" style="edgeStyle=none;orthogonalLoop=1;jettySize=auto;html=1;fontFamily=Helvetica;fontSize=14;fontColor=#FFFFFF;startArrow=classic;startFill=0;endArrow=classic;endFill=1;labelBackgroundColor=none;rounded=0;strokeColor=#2F5B7C;shadow=0;strokeWidth=3;" edge="1" parent="1" source="RiJoN2eTmRhTmO86q6G4-1988" target="RiJoN2eTmRhTmO86q6G4-1990">
          <mxGeometry relative="1" as="geometry" />
        </mxCell>
        <mxCell id="RiJoN2eTmRhTmO86q6G4-1988" value="Dragon Sea" style="rounded=1;whiteSpace=wrap;html=1;fontFamily=Helvetica;fontSize=14;fontColor=#FFFFFF;fillColor=#12aab5;strokeColor=none;shadow=0;labelBackgroundColor=none;strokeWidth=3;spacing=5;fontStyle=1;arcSize=7;" vertex="1" parent="1">
          <mxGeometry x="4840" y="525.5" width="120" height="60" as="geometry" />
        </mxCell>
        <mxCell id="RiJoN2eTmRhTmO86q6G4-1993" value="" style="edgeStyle=none;orthogonalLoop=1;jettySize=auto;html=1;fontFamily=Helvetica;fontSize=14;fontColor=#FFFFFF;startArrow=classic;startFill=0;endArrow=classic;endFill=1;exitX=1;exitY=0;exitDx=0;exitDy=0;labelBackgroundColor=none;rounded=0;strokeColor=#2F5B7C;shadow=0;strokeWidth=3;" edge="1" parent="1" source="RiJoN2eTmRhTmO86q6G4-1990" target="RiJoN2eTmRhTmO86q6G4-1992">
          <mxGeometry relative="1" as="geometry" />
        </mxCell>
        <mxCell id="RiJoN2eTmRhTmO86q6G4-1990" value="Dragon Sea" style="rounded=1;whiteSpace=wrap;html=1;fontFamily=Helvetica;fontSize=14;fontColor=#FFFFFF;fillColor=#12aab5;strokeColor=none;shadow=0;labelBackgroundColor=none;strokeWidth=3;spacing=5;fontStyle=1;arcSize=7;" vertex="1" parent="1">
          <mxGeometry x="4840" y="385.5" width="120" height="60" as="geometry" />
        </mxCell>
        <mxCell id="RiJoN2eTmRhTmO86q6G4-1992" value="Draconia&lt;br&gt;(hero homes)" style="rounded=1;whiteSpace=wrap;html=1;fontFamily=Helvetica;fontSize=14;fontColor=#FFFFFF;fillColor=#12aab5;strokeColor=none;shadow=0;labelBackgroundColor=none;strokeWidth=3;spacing=5;fontStyle=1;arcSize=7;" vertex="1" parent="1">
          <mxGeometry x="5000" y="261.5" width="120" height="60" as="geometry" />
        </mxCell>
        <mxCell id="RiJoN2eTmRhTmO86q6G4-1994" value="Draconia&lt;br&gt;(Djinn)" style="rounded=1;whiteSpace=wrap;html=1;fontFamily=Helvetica;fontSize=14;fontColor=#FFFFFF;fillColor=#12aab5;strokeColor=none;shadow=0;labelBackgroundColor=none;strokeWidth=3;spacing=5;fontStyle=1;arcSize=7;" vertex="1" parent="1">
          <mxGeometry x="4806" y="247" width="120" height="60" as="geometry" />
        </mxCell>
        <mxCell id="RiJoN2eTmRhTmO86q6G4-1999" value="" style="edgeStyle=none;orthogonalLoop=1;jettySize=auto;html=1;fontFamily=Helvetica;fontSize=14;fontColor=#FFFFFF;startArrow=classic;startFill=0;endArrow=classic;endFill=1;labelBackgroundColor=none;rounded=0;strokeColor=#2F5B7C;shadow=0;strokeWidth=3;" edge="1" parent="1" source="RiJoN2eTmRhTmO86q6G4-1996" target="RiJoN2eTmRhTmO86q6G4-1998">
          <mxGeometry relative="1" as="geometry" />
        </mxCell>
        <mxCell id="RiJoN2eTmRhTmO86q6G4-1996" value="New Thalos" style="rounded=1;whiteSpace=wrap;html=1;shadow=0;labelBackgroundColor=none;strokeColor=none;strokeWidth=3;fillColor=#12aab5;fontFamily=Helvetica;fontSize=14;fontColor=#FFFFFF;align=center;spacing=5;fontStyle=1;arcSize=7;perimeterSpacing=2;" vertex="1" parent="1">
          <mxGeometry x="3880" y="385.4999999999999" width="150" height="60" as="geometry" />
        </mxCell>
        <mxCell id="RiJoN2eTmRhTmO86q6G4-1997" value="" style="edgeStyle=none;orthogonalLoop=1;jettySize=auto;html=1;fontFamily=Helvetica;fontSize=14;fontColor=#FFFFFF;startArrow=classic;startFill=0;endArrow=classic;endFill=1;labelBackgroundColor=none;rounded=0;strokeColor=#2F5B7C;shadow=0;strokeWidth=3;entryX=0;entryY=0.5;entryDx=0;entryDy=0;exitX=1;exitY=0.5;exitDx=0;exitDy=0;" edge="1" parent="1" source="RiJoN2eTmRhTmO86q6G4-1996" target="RiJoN2eTmRhTmO86q6G4-1962">
          <mxGeometry relative="1" as="geometry">
            <mxPoint x="4030" y="416" as="sourcePoint" />
            <mxPoint x="3888.000000000001" y="425.5" as="targetPoint" />
          </mxGeometry>
        </mxCell>
        <mxCell id="RiJoN2eTmRhTmO86q6G4-1998" value="Atlantis" style="rounded=1;whiteSpace=wrap;html=1;shadow=0;labelBackgroundColor=none;strokeColor=none;strokeWidth=3;fillColor=#12aab5;fontFamily=Helvetica;fontSize=14;fontColor=#FFFFFF;align=center;spacing=5;fontStyle=1;arcSize=7;perimeterSpacing=2;" vertex="1" parent="1">
          <mxGeometry x="3880" y="245.4999999999999" width="150" height="60" as="geometry" />
        </mxCell>
        <mxCell id="RiJoN2eTmRhTmO86q6G4-2000" value="" style="curved=1;endArrow=classic;html=1;fontFamily=Helvetica;fontSize=15;fontColor=#000000;exitX=1;exitY=0;exitDx=0;exitDy=0;strokeColor=#00CC00;strokeWidth=4;entryX=0;entryY=1;entryDx=0;entryDy=0;" edge="1" parent="1" source="RiJoN2eTmRhTmO86q6G4-1901" target="RiJoN2eTmRhTmO86q6G4-2001">
          <mxGeometry width="50" height="50" relative="1" as="geometry">
            <mxPoint x="1320" y="110" as="sourcePoint" />
            <mxPoint x="1310" y="-670" as="targetPoint" />
            <Array as="points">
              <mxPoint x="950" y="-140" />
              <mxPoint x="1040" y="-690" />
            </Array>
          </mxGeometry>
        </mxCell>
        <mxCell id="RiJoN2eTmRhTmO86q6G4-2003" value="" style="edgeStyle=none;orthogonalLoop=1;jettySize=auto;html=1;fontFamily=Helvetica;fontSize=14;fontColor=#FFFFFF;startArrow=classic;startFill=0;endArrow=classic;endFill=1;exitX=1;exitY=0;exitDx=0;exitDy=0;strokeColor=#2F5B7C;strokeWidth=3;labelBackgroundColor=none;rounded=0;shadow=0;entryX=0;entryY=1;entryDx=0;entryDy=0;" edge="1" parent="1" source="RiJoN2eTmRhTmO86q6G4-2001" target="RiJoN2eTmRhTmO86q6G4-2002">
          <mxGeometry relative="1" as="geometry" />
        </mxCell>
        <mxCell id="RiJoN2eTmRhTmO86q6G4-2001" value="In the Air" style="rounded=1;whiteSpace=wrap;html=1;shadow=0;labelBackgroundColor=none;strokeColor=none;strokeWidth=3;fillColor=#2F5B7C;fontFamily=Helvetica;fontSize=16;fontColor=#FFFFFF;align=center;spacing=5;fontStyle=1;arcSize=7;perimeterSpacing=2;" vertex="1" parent="1">
          <mxGeometry x="1250" y="-1184" width="150" height="60" as="geometry" />
        </mxCell>
        <mxCell id="RiJoN2eTmRhTmO86q6G4-2006" value="" style="edgeStyle=none;orthogonalLoop=1;jettySize=auto;html=1;fontFamily=Helvetica;fontSize=14;fontColor=#FFFFFF;startArrow=classic;startFill=0;endArrow=classic;endFill=1;labelBackgroundColor=none;rounded=0;strokeColor=#2F5B7C;shadow=0;strokeWidth=3;" edge="1" parent="1" source="RiJoN2eTmRhTmO86q6G4-2002" target="RiJoN2eTmRhTmO86q6G4-2005">
          <mxGeometry relative="1" as="geometry" />
        </mxCell>
        <mxCell id="RiJoN2eTmRhTmO86q6G4-2008" value="" style="edgeStyle=none;orthogonalLoop=1;jettySize=auto;html=1;fontFamily=Helvetica;fontSize=14;fontColor=#FFFFFF;startArrow=classic;startFill=0;endArrow=classic;endFill=1;labelBackgroundColor=none;rounded=0;strokeColor=#2F5B7C;shadow=0;strokeWidth=3;" edge="1" parent="1" source="RiJoN2eTmRhTmO86q6G4-2002" target="RiJoN2eTmRhTmO86q6G4-2007">
          <mxGeometry relative="1" as="geometry" />
        </mxCell>
        <mxCell id="RiJoN2eTmRhTmO86q6G4-2010" value="" style="edgeStyle=none;orthogonalLoop=1;jettySize=auto;html=1;fontFamily=Helvetica;fontSize=14;fontColor=#FFFFFF;startArrow=classic;startFill=0;endArrow=classic;endFill=1;labelBackgroundColor=none;rounded=0;strokeColor=#2F5B7C;shadow=0;strokeWidth=3;" edge="1" parent="1" source="RiJoN2eTmRhTmO86q6G4-2002" target="RiJoN2eTmRhTmO86q6G4-2009">
          <mxGeometry relative="1" as="geometry" />
        </mxCell>
        <mxCell id="RiJoN2eTmRhTmO86q6G4-2002" value="In the Air" style="rounded=1;whiteSpace=wrap;html=1;shadow=0;labelBackgroundColor=none;strokeColor=none;strokeWidth=3;fillColor=#2F5B7C;fontFamily=Helvetica;fontSize=16;fontColor=#FFFFFF;align=center;spacing=5;fontStyle=1;arcSize=7;perimeterSpacing=2;" vertex="1" parent="1">
          <mxGeometry x="1500" y="-1514" width="150" height="60" as="geometry" />
        </mxCell>
        <mxCell id="RiJoN2eTmRhTmO86q6G4-2005" value="Plane of Time" style="rounded=1;whiteSpace=wrap;html=1;shadow=0;labelBackgroundColor=none;strokeColor=none;strokeWidth=3;fillColor=#2F5B7C;fontFamily=Helvetica;fontSize=16;fontColor=#FFFFFF;align=center;spacing=5;fontStyle=1;arcSize=7;perimeterSpacing=2;" vertex="1" parent="1">
          <mxGeometry x="1730" y="-1514" width="150" height="60" as="geometry" />
        </mxCell>
        <mxCell id="RiJoN2eTmRhTmO86q6G4-2007" value="Astral/Githyanki&lt;br&gt;Plane of Fire Entrance" style="rounded=1;whiteSpace=wrap;html=1;shadow=0;labelBackgroundColor=none;strokeColor=none;strokeWidth=3;fillColor=#2F5B7C;fontFamily=Helvetica;fontSize=16;fontColor=#FFFFFF;align=center;spacing=5;fontStyle=1;arcSize=7;perimeterSpacing=2;" vertex="1" parent="1">
          <mxGeometry x="1500" y="-1654" width="150" height="60" as="geometry" />
        </mxCell>
        <mxCell id="RiJoN2eTmRhTmO86q6G4-2009" value="Single Shire room that&lt;br&gt;leads through vortex&lt;br&gt;to Elemental Plane&lt;br&gt;of Air, for&lt;br&gt;some reason" style="rounded=1;whiteSpace=wrap;html=1;shadow=0;labelBackgroundColor=none;strokeColor=none;strokeWidth=3;fillColor=#2F5B7C;fontFamily=Helvetica;fontSize=16;fontColor=#FFFFFF;align=center;spacing=5;fontStyle=1;arcSize=7;perimeterSpacing=2;" vertex="1" parent="1">
          <mxGeometry x="1140" y="-1549" width="250" height="130" as="geometry" />
        </mxCell>
        <mxCell id="RiJoN2eTmRhTmO86q6G4-2014" value="" style="edgeStyle=none;orthogonalLoop=1;jettySize=auto;html=1;fontFamily=Helvetica;fontSize=14;fontColor=#FFFFFF;startArrow=classic;startFill=0;endArrow=classic;endFill=1;labelBackgroundColor=none;rounded=0;strokeColor=#2F5B7C;shadow=0;strokeWidth=3;" edge="1" parent="1" source="RiJoN2eTmRhTmO86q6G4-2011" target="RiJoN2eTmRhTmO86q6G4-2013">
          <mxGeometry relative="1" as="geometry" />
        </mxCell>
        <mxCell id="RiJoN2eTmRhTmO86q6G4-2011" value="Haon Dor" style="rounded=1;whiteSpace=wrap;html=1;shadow=0;labelBackgroundColor=none;strokeColor=none;strokeWidth=3;fillColor=#BD9700;fontFamily=Helvetica;fontSize=14;fontColor=#FFFFFF;align=center;spacing=5;fontStyle=1;arcSize=7;perimeterSpacing=2;" vertex="1" parent="1">
          <mxGeometry x="-410" y="516.5" width="150" height="60" as="geometry" />
        </mxCell>
        <mxCell id="RiJoN2eTmRhTmO86q6G4-2013" value="Haon Dor&lt;br&gt;Prot Clanhall&lt;br&gt;Rag Clanhall" style="rounded=1;whiteSpace=wrap;html=1;shadow=0;labelBackgroundColor=none;strokeColor=none;strokeWidth=3;fillColor=#BD9700;fontFamily=Helvetica;fontSize=14;fontColor=#FFFFFF;align=center;spacing=5;fontStyle=1;arcSize=7;perimeterSpacing=2;" vertex="1" parent="1">
          <mxGeometry x="-410" y="656.5" width="150" height="60" as="geometry" />
        </mxCell>
        <mxCell id="RiJoN2eTmRhTmO86q6G4-2015" value="Elvandar" style="rounded=1;whiteSpace=wrap;html=1;shadow=0;labelBackgroundColor=none;strokeColor=none;strokeWidth=3;fillColor=#BD9700;fontFamily=Helvetica;fontSize=14;fontColor=#FFFFFF;align=center;spacing=5;fontStyle=1;arcSize=7;perimeterSpacing=2;" vertex="1" parent="1">
          <mxGeometry x="-230" y="850" width="150" height="60" as="geometry" />
        </mxCell>
        <mxCell id="RiJoN2eTmRhTmO86q6G4-2016" value="Sea of Death" style="rounded=1;whiteSpace=wrap;html=1;shadow=0;labelBackgroundColor=none;strokeColor=none;strokeWidth=3;fillColor=#BD9700;fontFamily=Helvetica;fontSize=14;fontColor=#FFFFFF;align=center;spacing=5;fontStyle=1;arcSize=7;perimeterSpacing=2;" vertex="1" parent="1">
          <mxGeometry x="110" y="890" width="150" height="60" as="geometry" />
        </mxCell>
        <mxCell id="RiJoN2eTmRhTmO86q6G4-2017" value="" style="curved=1;endArrow=classic;html=1;fontFamily=Helvetica;fontSize=14;fontColor=#FFFFFF;entryX=0;entryY=0.75;entryDx=0;entryDy=0;exitX=0.5;exitY=0;exitDx=0;exitDy=0;labelBackgroundColor=none;rounded=0;strokeColor=#2F5B7C;startArrow=classic;shadow=0;strokeWidth=3;" edge="1" parent="1" source="RiJoN2eTmRhTmO86q6G4-2016" target="RiJoN2eTmRhTmO86q6G4-1901">
          <mxGeometry width="50" height="50" relative="1" as="geometry">
            <mxPoint x="170" y="600" as="sourcePoint" />
            <mxPoint x="220" y="550" as="targetPoint" />
            <Array as="points">
              <mxPoint x="220" y="600" />
              <mxPoint x="230" y="520" />
            </Array>
          </mxGeometry>
        </mxCell>
        <mxCell id="RiJoN2eTmRhTmO86q6G4-2019" value="" style="curved=1;endArrow=classic;html=1;fontFamily=Helvetica;fontSize=15;fontColor=#000000;entryX=0;entryY=1;entryDx=0;entryDy=0;exitX=0.5;exitY=0;exitDx=0;exitDy=0;strokeColor=#33FFFF;strokeWidth=5;" edge="1" parent="1" source="RiJoN2eTmRhTmO86q6G4-2015" target="RiJoN2eTmRhTmO86q6G4-1792">
          <mxGeometry width="50" height="50" relative="1" as="geometry">
            <mxPoint x="-30" y="850" as="sourcePoint" />
            <mxPoint x="3510" y="600" as="targetPoint" />
            <Array as="points">
              <mxPoint x="2860" y="690" />
              <mxPoint x="3550" y="650" />
            </Array>
          </mxGeometry>
        </mxCell>
        <mxCell id="RiJoN2eTmRhTmO86q6G4-2021" value="Troll Den" style="rounded=1;whiteSpace=wrap;html=1;shadow=0;labelBackgroundColor=none;strokeColor=none;strokeWidth=3;fillColor=#BD9700;fontFamily=Helvetica;fontSize=14;fontColor=#FFFFFF;align=center;spacing=5;fontStyle=1;arcSize=7;perimeterSpacing=2;" vertex="1" parent="1">
          <mxGeometry x="-710" y="656.5" width="100" height="60" as="geometry" />
        </mxCell>
        <mxCell id="RiJoN2eTmRhTmO86q6G4-2027" value="Dark Tower" style="rounded=1;whiteSpace=wrap;html=1;shadow=0;labelBackgroundColor=none;strokeColor=none;strokeWidth=3;fillColor=#BD9700;fontFamily=Helvetica;fontSize=14;fontColor=#FFFFFF;align=center;spacing=5;fontStyle=1;arcSize=7;perimeterSpacing=2;" vertex="1" parent="1">
          <mxGeometry x="-1150" y="795.5" width="100" height="60" as="geometry" />
        </mxCell>
        <mxCell id="RiJoN2eTmRhTmO86q6G4-2029" value="Keep of the Warlock" style="rounded=1;whiteSpace=wrap;html=1;shadow=0;labelBackgroundColor=none;strokeColor=none;strokeWidth=3;fillColor=#BD9700;fontFamily=Helvetica;fontSize=14;fontColor=#FFFFFF;align=center;spacing=5;fontStyle=1;arcSize=7;perimeterSpacing=2;" vertex="1" parent="1">
          <mxGeometry x="-970" y="935.5" width="100" height="60" as="geometry" />
        </mxCell>
        <mxCell id="RiJoN2eTmRhTmO86q6G4-2034" value="" style="edgeStyle=none;orthogonalLoop=1;jettySize=auto;html=1;fontFamily=Helvetica;fontSize=14;fontColor=#FFFFFF;startArrow=classic;startFill=0;endArrow=classic;endFill=1;labelBackgroundColor=none;rounded=0;strokeColor=#2F5B7C;shadow=0;strokeWidth=3;" edge="1" parent="1" source="RiJoN2eTmRhTmO86q6G4-2031" target="RiJoN2eTmRhTmO86q6G4-2033">
          <mxGeometry relative="1" as="geometry" />
        </mxCell>
        <mxCell id="RiJoN2eTmRhTmO86q6G4-2031" value="Haon Dor" style="rounded=1;whiteSpace=wrap;html=1;shadow=0;labelBackgroundColor=none;strokeColor=none;strokeWidth=3;fillColor=#BD9700;fontFamily=Helvetica;fontSize=14;fontColor=#FFFFFF;align=center;spacing=5;fontStyle=1;arcSize=7;perimeterSpacing=2;" vertex="1" parent="1">
          <mxGeometry x="-710" y="236.5" width="100" height="60" as="geometry" />
        </mxCell>
        <mxCell id="RiJoN2eTmRhTmO86q6G4-2040" value="" style="edgeStyle=none;orthogonalLoop=1;jettySize=auto;html=1;fontFamily=Helvetica;fontSize=14;fontColor=#FFFFFF;startArrow=classic;startFill=0;endArrow=classic;endFill=1;exitX=1;exitY=0;exitDx=0;exitDy=0;labelBackgroundColor=none;rounded=0;strokeColor=#2F5B7C;shadow=0;strokeWidth=3;" edge="1" parent="1" source="RiJoN2eTmRhTmO86q6G4-2033" target="RiJoN2eTmRhTmO86q6G4-2039">
          <mxGeometry relative="1" as="geometry" />
        </mxCell>
        <mxCell id="RiJoN2eTmRhTmO86q6G4-2033" value="Druid Circle" style="rounded=1;whiteSpace=wrap;html=1;shadow=0;labelBackgroundColor=none;strokeColor=none;strokeWidth=3;fillColor=#BD9700;fontFamily=Helvetica;fontSize=14;fontColor=#FFFFFF;align=center;spacing=5;fontStyle=1;arcSize=7;perimeterSpacing=2;" vertex="1" parent="1">
          <mxGeometry x="-710" y="96.5" width="100" height="60" as="geometry" />
        </mxCell>
        <mxCell id="RiJoN2eTmRhTmO86q6G4-2035" value="Chaos Area" style="rounded=1;whiteSpace=wrap;html=1;shadow=0;labelBackgroundColor=none;strokeColor=none;strokeWidth=3;fillColor=#BD9700;fontFamily=Helvetica;fontSize=14;fontColor=#FFFFFF;align=center;spacing=5;fontStyle=1;arcSize=7;perimeterSpacing=2;" vertex="1" parent="1">
          <mxGeometry x="-410" y="236.5" width="150" height="60" as="geometry" />
        </mxCell>
        <mxCell id="RiJoN2eTmRhTmO86q6G4-2090" value="" style="edgeStyle=none;orthogonalLoop=1;jettySize=auto;html=1;fontFamily=Helvetica;fontSize=14;fontColor=#FFFFFF;startArrow=classic;startFill=0;endArrow=classic;endFill=1;labelBackgroundColor=none;rounded=0;strokeColor=#2F5B7C;shadow=0;strokeWidth=3;" edge="1" parent="1" source="RiJoN2eTmRhTmO86q6G4-2037" target="RiJoN2eTmRhTmO86q6G4-2089">
          <mxGeometry relative="1" as="geometry" />
        </mxCell>
        <mxCell id="RiJoN2eTmRhTmO86q6G4-2037" value="Haon Dor" style="rounded=1;whiteSpace=wrap;html=1;shadow=0;labelBackgroundColor=none;strokeColor=none;strokeWidth=3;fillColor=#BD9700;fontFamily=Helvetica;fontSize=14;fontColor=#FFFFFF;align=center;spacing=5;fontStyle=1;arcSize=7;perimeterSpacing=2;" vertex="1" parent="1">
          <mxGeometry x="260" y="380.25" width="150" height="60" as="geometry" />
        </mxCell>
        <mxCell id="RiJoN2eTmRhTmO86q6G4-2038" value="" style="endArrow=classic;startArrow=classic;html=1;rounded=0;shadow=0;labelBackgroundColor=none;fontFamily=Helvetica;fontSize=14;fontColor=#FFFFFF;strokeColor=#2F5B7C;strokeWidth=3;shape=connector;jumpStyle=none;entryX=1;entryY=0.5;entryDx=0;entryDy=0;exitX=0;exitY=0.5;exitDx=0;exitDy=0;" edge="1" parent="1" source="RiJoN2eTmRhTmO86q6G4-2037" target="1753">
          <mxGeometry width="50" height="50" relative="1" as="geometry">
            <mxPoint x="503" y="420.25" as="sourcePoint" />
            <mxPoint x="182" y="415.5" as="targetPoint" />
          </mxGeometry>
        </mxCell>
        <mxCell id="RiJoN2eTmRhTmO86q6G4-2039" value="Druid Clan" style="rounded=1;whiteSpace=wrap;html=1;shadow=0;labelBackgroundColor=none;strokeColor=none;strokeWidth=3;fillColor=#BD9700;fontFamily=Helvetica;fontSize=14;fontColor=#FFFFFF;align=center;spacing=5;fontStyle=1;arcSize=7;perimeterSpacing=2;" vertex="1" parent="1">
          <mxGeometry x="-584" y="-10" width="100" height="60" as="geometry" />
        </mxCell>
        <mxCell id="RiJoN2eTmRhTmO86q6G4-2044" value="" style="edgeStyle=none;orthogonalLoop=1;jettySize=auto;html=1;fontFamily=Helvetica;fontSize=14;fontColor=#FFFFFF;startArrow=classic;startFill=0;endArrow=classic;endFill=1;labelBackgroundColor=none;rounded=0;strokeColor=#2F5B7C;shadow=0;strokeWidth=3;" edge="1" parent="1" source="RiJoN2eTmRhTmO86q6G4-2041" target="RiJoN2eTmRhTmO86q6G4-2043">
          <mxGeometry relative="1" as="geometry" />
        </mxCell>
        <mxCell id="RiJoN2eTmRhTmO86q6G4-2041" value="Mirkwood" style="rounded=1;whiteSpace=wrap;html=1;shadow=0;labelBackgroundColor=none;strokeColor=none;strokeWidth=3;fillColor=#F08705;fontFamily=Helvetica;fontSize=14;fontColor=#FFFFFF;align=center;spacing=5;fontStyle=1;arcSize=7;perimeterSpacing=2;" vertex="1" parent="1">
          <mxGeometry x="270" y="-500" width="150" height="60" as="geometry" />
        </mxCell>
        <mxCell id="RiJoN2eTmRhTmO86q6G4-2046" value="" style="edgeStyle=none;orthogonalLoop=1;jettySize=auto;html=1;fontFamily=Helvetica;fontSize=14;fontColor=#FFFFFF;startArrow=classic;startFill=0;endArrow=classic;endFill=1;labelBackgroundColor=none;rounded=0;strokeColor=#2F5B7C;shadow=0;strokeWidth=3;" edge="1" parent="1" source="RiJoN2eTmRhTmO86q6G4-2043" target="RiJoN2eTmRhTmO86q6G4-2045">
          <mxGeometry relative="1" as="geometry" />
        </mxCell>
        <mxCell id="RiJoN2eTmRhTmO86q6G4-2043" value="Mirkwood" style="rounded=1;whiteSpace=wrap;html=1;shadow=0;labelBackgroundColor=none;strokeColor=none;strokeWidth=3;fillColor=#F08705;fontFamily=Helvetica;fontSize=14;fontColor=#FFFFFF;align=center;spacing=5;fontStyle=1;arcSize=7;perimeterSpacing=2;" vertex="1" parent="1">
          <mxGeometry x="40" y="-500" width="150" height="60" as="geometry" />
        </mxCell>
        <mxCell id="RiJoN2eTmRhTmO86q6G4-2048" value="" style="edgeStyle=none;orthogonalLoop=1;jettySize=auto;html=1;fontFamily=Helvetica;fontSize=14;fontColor=#FFFFFF;startArrow=classic;startFill=0;endArrow=classic;endFill=1;labelBackgroundColor=none;rounded=0;strokeColor=#2F5B7C;shadow=0;strokeWidth=3;" edge="1" parent="1" source="RiJoN2eTmRhTmO86q6G4-2045" target="RiJoN2eTmRhTmO86q6G4-2047">
          <mxGeometry relative="1" as="geometry" />
        </mxCell>
        <mxCell id="RiJoN2eTmRhTmO86q6G4-2045" value="Mirkwood" style="rounded=1;whiteSpace=wrap;html=1;shadow=0;labelBackgroundColor=none;strokeColor=none;strokeWidth=3;fillColor=#F08705;fontFamily=Helvetica;fontSize=14;fontColor=#FFFFFF;align=center;spacing=5;fontStyle=1;arcSize=7;perimeterSpacing=2;" vertex="1" parent="1">
          <mxGeometry x="40" y="-880" width="150" height="60" as="geometry" />
        </mxCell>
        <mxCell id="RiJoN2eTmRhTmO86q6G4-2047" value="Valley of the Elves" style="rounded=1;whiteSpace=wrap;html=1;shadow=0;labelBackgroundColor=none;strokeColor=none;strokeWidth=3;fillColor=#F08705;fontFamily=Helvetica;fontSize=14;fontColor=#FFFFFF;align=center;spacing=5;fontStyle=1;arcSize=7;perimeterSpacing=2;" vertex="1" parent="1">
          <mxGeometry x="270" y="-880" width="150" height="60" as="geometry" />
        </mxCell>
        <mxCell id="RiJoN2eTmRhTmO86q6G4-2049" value="" style="edgeStyle=none;orthogonalLoop=1;jettySize=auto;html=1;fontFamily=Helvetica;fontSize=14;fontColor=#FFFFFF;startArrow=classic;startFill=0;endArrow=classic;endFill=1;labelBackgroundColor=none;rounded=0;strokeColor=#2F5B7C;shadow=0;strokeWidth=3;entryX=0;entryY=1;entryDx=0;entryDy=0;exitX=1;exitY=0;exitDx=0;exitDy=0;" edge="1" parent="1" source="RiJoN2eTmRhTmO86q6G4-2047" target="1764">
          <mxGeometry relative="1" as="geometry">
            <mxPoint x="202" y="-840" as="sourcePoint" />
            <mxPoint x="278" y="-840" as="targetPoint" />
          </mxGeometry>
        </mxCell>
        <mxCell id="RiJoN2eTmRhTmO86q6G4-2053" value="" style="edgeStyle=none;orthogonalLoop=1;jettySize=auto;html=1;fontFamily=Helvetica;fontSize=16;fontColor=#23445D;startArrow=classic;startFill=0;endArrow=classic;endFill=1;labelBackgroundColor=none;rounded=0;strokeColor=#2F5B7C;shadow=0;strokeWidth=3;" edge="1" parent="1" source="RiJoN2eTmRhTmO86q6G4-2050" target="RiJoN2eTmRhTmO86q6G4-2052">
          <mxGeometry relative="1" as="geometry" />
        </mxCell>
        <mxCell id="RiJoN2eTmRhTmO86q6G4-2055" value="" style="edgeStyle=none;orthogonalLoop=1;jettySize=auto;html=1;fontFamily=Helvetica;fontSize=16;fontColor=#23445D;startArrow=classic;startFill=0;endArrow=classic;endFill=1;entryX=1;entryY=0.5;entryDx=0;entryDy=0;labelBackgroundColor=none;rounded=0;strokeColor=#2F5B7C;shadow=0;strokeWidth=3;" edge="1" parent="1" source="RiJoN2eTmRhTmO86q6G4-2050" target="RiJoN2eTmRhTmO86q6G4-2054">
          <mxGeometry relative="1" as="geometry">
            <mxPoint x="1172" y="54.500000000000455" as="targetPoint" />
          </mxGeometry>
        </mxCell>
        <mxCell id="RiJoN2eTmRhTmO86q6G4-2050" value="Moria" style="rounded=1;whiteSpace=wrap;html=1;shadow=0;labelBackgroundColor=none;strokeColor=none;strokeWidth=3;fillColor=#12aab5;fontFamily=Helvetica;fontSize=14;fontColor=#FFFFFF;align=center;spacing=5;fontStyle=1;arcSize=7;perimeterSpacing=2;" vertex="1" parent="1">
          <mxGeometry x="1250" y="24.499999999999886" width="150" height="60" as="geometry" />
        </mxCell>
        <mxCell id="RiJoN2eTmRhTmO86q6G4-2059" value="" style="edgeStyle=none;orthogonalLoop=1;jettySize=auto;html=1;fontFamily=Helvetica;fontSize=16;fontColor=#23445D;startArrow=classic;startFill=0;endArrow=classic;endFill=1;labelBackgroundColor=none;rounded=0;strokeColor=#2F5B7C;shadow=0;strokeWidth=3;" edge="1" parent="1" source="RiJoN2eTmRhTmO86q6G4-2052" target="RiJoN2eTmRhTmO86q6G4-2058">
          <mxGeometry relative="1" as="geometry" />
        </mxCell>
        <mxCell id="RiJoN2eTmRhTmO86q6G4-2052" value="Moria (lowbie)" style="rounded=1;whiteSpace=wrap;html=1;shadow=0;labelBackgroundColor=none;strokeColor=none;strokeWidth=3;fillColor=#12aab5;fontFamily=Helvetica;fontSize=14;fontColor=#FFFFFF;align=center;spacing=5;fontStyle=1;arcSize=7;perimeterSpacing=2;" vertex="1" parent="1">
          <mxGeometry x="1250" y="-115.50000000000011" width="150" height="60" as="geometry" />
        </mxCell>
        <mxCell id="RiJoN2eTmRhTmO86q6G4-2057" value="" style="edgeStyle=none;orthogonalLoop=1;jettySize=auto;html=1;fontFamily=Helvetica;fontSize=16;fontColor=#23445D;startArrow=classic;startFill=0;endArrow=classic;endFill=1;entryX=0;entryY=1;entryDx=0;entryDy=0;exitX=1;exitY=0;exitDx=0;exitDy=0;labelBackgroundColor=none;rounded=0;strokeColor=#2F5B7C;shadow=0;strokeWidth=3;" edge="1" parent="1" source="RiJoN2eTmRhTmO86q6G4-2054" target="RiJoN2eTmRhTmO86q6G4-2056">
          <mxGeometry relative="1" as="geometry" />
        </mxCell>
        <mxCell id="RiJoN2eTmRhTmO86q6G4-2054" value="Moria (highbie)" style="rounded=1;whiteSpace=wrap;html=1;shadow=0;labelBackgroundColor=none;strokeColor=none;strokeWidth=3;fillColor=#12aab5;fontFamily=Helvetica;fontSize=14;fontColor=#FFFFFF;align=center;spacing=5;fontStyle=1;arcSize=7;perimeterSpacing=2;" vertex="1" parent="1">
          <mxGeometry x="865" y="24.499999999999886" width="150" height="60" as="geometry" />
        </mxCell>
        <mxCell id="RiJoN2eTmRhTmO86q6G4-2056" value="Twisted Tower" style="rounded=1;whiteSpace=wrap;html=1;shadow=0;labelBackgroundColor=none;strokeColor=none;strokeWidth=3;fillColor=#12aab5;fontFamily=Helvetica;fontSize=14;fontColor=#FFFFFF;align=center;spacing=5;fontStyle=1;arcSize=7;perimeterSpacing=2;" vertex="1" parent="1">
          <mxGeometry x="1080" y="-115.50000000000011" width="150" height="60" as="geometry" />
        </mxCell>
        <mxCell id="RiJoN2eTmRhTmO86q6G4-2061" value="" style="edgeStyle=none;orthogonalLoop=1;jettySize=auto;html=1;fontFamily=Helvetica;fontSize=16;fontColor=#23445D;startArrow=classic;startFill=0;endArrow=classic;endFill=1;labelBackgroundColor=none;rounded=0;strokeColor=#2F5B7C;shadow=0;strokeWidth=3;" edge="1" parent="1" source="RiJoN2eTmRhTmO86q6G4-2058" target="RiJoN2eTmRhTmO86q6G4-2060">
          <mxGeometry relative="1" as="geometry" />
        </mxCell>
        <mxCell id="RiJoN2eTmRhTmO86q6G4-2058" value="Moria (lowbie)" style="rounded=1;whiteSpace=wrap;html=1;shadow=0;labelBackgroundColor=none;strokeColor=none;strokeWidth=3;fillColor=#12aab5;fontFamily=Helvetica;fontSize=14;fontColor=#FFFFFF;align=center;spacing=5;fontStyle=1;arcSize=7;perimeterSpacing=2;" vertex="1" parent="1">
          <mxGeometry x="1250" y="-255.5000000000001" width="150" height="60" as="geometry" />
        </mxCell>
        <mxCell id="RiJoN2eTmRhTmO86q6G4-2063" value="" style="edgeStyle=none;orthogonalLoop=1;jettySize=auto;html=1;fontFamily=Helvetica;fontSize=16;fontColor=#23445D;startArrow=classic;startFill=0;endArrow=classic;endFill=1;labelBackgroundColor=none;rounded=0;strokeColor=#2F5B7C;shadow=0;strokeWidth=3;" edge="1" parent="1" source="RiJoN2eTmRhTmO86q6G4-2060" target="RiJoN2eTmRhTmO86q6G4-2062">
          <mxGeometry relative="1" as="geometry" />
        </mxCell>
        <mxCell id="RiJoN2eTmRhTmO86q6G4-2065" value="" style="edgeStyle=none;orthogonalLoop=1;jettySize=auto;html=1;fontFamily=Helvetica;fontSize=16;fontColor=#23445D;startArrow=classic;startFill=0;endArrow=classic;endFill=1;labelBackgroundColor=none;rounded=0;strokeColor=#2F5B7C;shadow=0;strokeWidth=3;" edge="1" parent="1" source="RiJoN2eTmRhTmO86q6G4-2066" target="RiJoN2eTmRhTmO86q6G4-2064">
          <mxGeometry relative="1" as="geometry" />
        </mxCell>
        <mxCell id="RiJoN2eTmRhTmO86q6G4-2067" value="" style="edgeStyle=none;orthogonalLoop=1;jettySize=auto;html=1;fontFamily=Helvetica;fontSize=16;fontColor=#23445D;startArrow=classic;startFill=0;endArrow=classic;endFill=1;labelBackgroundColor=none;rounded=0;strokeColor=#2F5B7C;shadow=0;strokeWidth=3;" edge="1" parent="1" source="RiJoN2eTmRhTmO86q6G4-2060" target="RiJoN2eTmRhTmO86q6G4-2066">
          <mxGeometry relative="1" as="geometry" />
        </mxCell>
        <mxCell id="RiJoN2eTmRhTmO86q6G4-2060" value="Moria (lowbie)" style="rounded=1;whiteSpace=wrap;html=1;shadow=0;labelBackgroundColor=none;strokeColor=none;strokeWidth=3;fillColor=#12aab5;fontFamily=Helvetica;fontSize=14;fontColor=#FFFFFF;align=center;spacing=5;fontStyle=1;arcSize=7;perimeterSpacing=2;" vertex="1" parent="1">
          <mxGeometry x="1250" y="-395.5000000000001" width="150" height="60" as="geometry" />
        </mxCell>
        <mxCell id="RiJoN2eTmRhTmO86q6G4-2062" value="Magic: The Gathering" style="rounded=1;whiteSpace=wrap;html=1;shadow=0;labelBackgroundColor=none;strokeColor=none;strokeWidth=3;fillColor=#12aab5;fontFamily=Helvetica;fontSize=14;fontColor=#FFFFFF;align=center;spacing=5;fontStyle=1;arcSize=7;perimeterSpacing=2;" vertex="1" parent="1">
          <mxGeometry x="1250" y="-535.5000000000001" width="150" height="60" as="geometry" />
        </mxCell>
        <mxCell id="RiJoN2eTmRhTmO86q6G4-2064" value="Valley of the Giants" style="rounded=1;whiteSpace=wrap;html=1;shadow=0;labelBackgroundColor=none;strokeColor=none;strokeWidth=3;fillColor=#12aab5;fontFamily=Helvetica;fontSize=14;fontColor=#FFFFFF;align=center;spacing=5;fontStyle=1;arcSize=7;perimeterSpacing=2;" vertex="1" parent="1">
          <mxGeometry x="1480" y="-535.5000000000001" width="150" height="60" as="geometry" />
        </mxCell>
        <mxCell id="RiJoN2eTmRhTmO86q6G4-2069" value="" style="edgeStyle=none;orthogonalLoop=1;jettySize=auto;html=1;fontFamily=Helvetica;fontSize=16;fontColor=#23445D;startArrow=classic;startFill=0;endArrow=classic;endFill=1;labelBackgroundColor=none;rounded=0;strokeColor=#2F5B7C;shadow=0;strokeWidth=3;" edge="1" parent="1" source="RiJoN2eTmRhTmO86q6G4-2066" target="RiJoN2eTmRhTmO86q6G4-2068">
          <mxGeometry relative="1" as="geometry" />
        </mxCell>
        <mxCell id="RiJoN2eTmRhTmO86q6G4-2066" value="Moria (lowbie)" style="rounded=1;whiteSpace=wrap;html=1;shadow=0;labelBackgroundColor=none;strokeColor=none;strokeWidth=3;fillColor=#12aab5;fontFamily=Helvetica;fontSize=14;fontColor=#FFFFFF;align=center;spacing=5;fontStyle=1;arcSize=7;perimeterSpacing=2;" vertex="1" parent="1">
          <mxGeometry x="1480" y="-395.5000000000001" width="150" height="60" as="geometry" />
        </mxCell>
        <mxCell id="RiJoN2eTmRhTmO86q6G4-2068" value="Korrag" style="rounded=1;whiteSpace=wrap;html=1;shadow=0;labelBackgroundColor=none;strokeColor=none;strokeWidth=3;fillColor=#12aab5;fontFamily=Helvetica;fontSize=14;fontColor=#FFFFFF;align=center;spacing=5;fontStyle=1;arcSize=7;perimeterSpacing=2;" vertex="1" parent="1">
          <mxGeometry x="1710" y="-395.5000000000001" width="150" height="60" as="geometry" />
        </mxCell>
        <mxCell id="RiJoN2eTmRhTmO86q6G4-2073" value="" style="edgeStyle=none;orthogonalLoop=1;jettySize=auto;html=1;fontFamily=Helvetica;fontSize=16;fontColor=#23445D;startArrow=classic;startFill=0;endArrow=classic;endFill=1;labelBackgroundColor=none;rounded=0;strokeColor=#2F5B7C;shadow=0;strokeWidth=3;" edge="1" parent="1" source="RiJoN2eTmRhTmO86q6G4-2070" target="RiJoN2eTmRhTmO86q6G4-2072">
          <mxGeometry relative="1" as="geometry" />
        </mxCell>
        <mxCell id="RiJoN2eTmRhTmO86q6G4-2070" value="Dwarven Kingdom&lt;br&gt;Dwarven Catacombs" style="rounded=1;whiteSpace=wrap;html=1;shadow=0;labelBackgroundColor=none;strokeColor=none;strokeWidth=3;fillColor=#12aab5;fontFamily=Helvetica;fontSize=14;fontColor=#FFFFFF;align=center;spacing=5;fontStyle=1;arcSize=7;perimeterSpacing=2;" vertex="1" parent="1">
          <mxGeometry x="1450" y="164.4999999999999" width="150" height="60" as="geometry" />
        </mxCell>
        <mxCell id="RiJoN2eTmRhTmO86q6G4-2072" value="Day Care" style="rounded=1;whiteSpace=wrap;html=1;shadow=0;labelBackgroundColor=none;strokeColor=none;strokeWidth=3;fillColor=#12aab5;fontFamily=Helvetica;fontSize=14;fontColor=#FFFFFF;align=center;spacing=5;fontStyle=1;arcSize=7;perimeterSpacing=2;" vertex="1" parent="1">
          <mxGeometry x="1450" y="304.4999999999999" width="150" height="60" as="geometry" />
        </mxCell>
        <mxCell id="RiJoN2eTmRhTmO86q6G4-2074" value="Shadow Grove&lt;br&gt;High Tower&lt;br&gt;Dragon Tower" style="rounded=1;whiteSpace=wrap;html=1;shadow=0;labelBackgroundColor=none;strokeColor=none;strokeWidth=3;fillColor=#BD9700;fontFamily=Helvetica;fontSize=14;fontColor=#FFFFFF;align=center;spacing=5;fontStyle=1;arcSize=7;perimeterSpacing=2;" vertex="1" parent="1">
          <mxGeometry x="-1410" y="500" width="160" height="85.5" as="geometry" />
        </mxCell>
        <mxCell id="RiJoN2eTmRhTmO86q6G4-2100" value="" style="edgeStyle=none;orthogonalLoop=1;jettySize=auto;html=1;fontFamily=Helvetica;fontSize=14;fontColor=#FFFFFF;startArrow=classic;startFill=0;endArrow=classic;endFill=1;labelBackgroundColor=none;rounded=0;strokeColor=#2F5B7C;shadow=0;strokeWidth=3;" edge="1" parent="1" source="RiJoN2eTmRhTmO86q6G4-2076" target="RiJoN2eTmRhTmO86q6G4-2099">
          <mxGeometry relative="1" as="geometry" />
        </mxCell>
        <mxCell id="RiJoN2eTmRhTmO86q6G4-2102" value="" style="edgeStyle=none;orthogonalLoop=1;jettySize=auto;html=1;fontFamily=Helvetica;fontSize=14;fontColor=#FFFFFF;startArrow=classic;startFill=0;endArrow=classic;endFill=1;labelBackgroundColor=none;rounded=0;strokeColor=#2F5B7C;shadow=0;strokeWidth=3;" edge="1" parent="1" source="RiJoN2eTmRhTmO86q6G4-2076" target="RiJoN2eTmRhTmO86q6G4-2101">
          <mxGeometry relative="1" as="geometry" />
        </mxCell>
        <mxCell id="RiJoN2eTmRhTmO86q6G4-2076" value="Plains" style="rounded=1;whiteSpace=wrap;html=1;shadow=0;labelBackgroundColor=none;strokeColor=none;strokeWidth=3;fillColor=#F08705;fontFamily=Helvetica;fontSize=14;fontColor=#FFFFFF;align=center;spacing=5;fontStyle=1;arcSize=7;perimeterSpacing=2;" vertex="1" parent="1">
          <mxGeometry x="740" y="-790" width="150" height="60" as="geometry" />
        </mxCell>
        <mxCell id="RiJoN2eTmRhTmO86q6G4-2078" value="Prot Clanhall" style="rounded=1;whiteSpace=wrap;html=1;shadow=0;labelBackgroundColor=none;strokeColor=none;strokeWidth=3;fillColor=#F08705;fontFamily=Helvetica;fontSize=14;fontColor=#FFFFFF;align=center;spacing=5;fontStyle=1;arcSize=7;perimeterSpacing=2;" vertex="1" parent="1">
          <mxGeometry x="270" y="-790" width="150" height="60" as="geometry" />
        </mxCell>
        <mxCell id="RiJoN2eTmRhTmO86q6G4-2080" value="Shinobyama?" style="rounded=1;whiteSpace=wrap;html=1;fontFamily=Helvetica;fontSize=14;fontColor=#FFFFFF;fillColor=#12aab5;strokeColor=none;shadow=0;labelBackgroundColor=none;strokeWidth=3;spacing=5;fontStyle=1;arcSize=7;" vertex="1" parent="1">
          <mxGeometry x="4240" y="1080" width="120" height="60" as="geometry" />
        </mxCell>
        <mxCell id="RiJoN2eTmRhTmO86q6G4-2081" value="" style="edgeStyle=none;orthogonalLoop=1;jettySize=auto;html=1;fontFamily=Helvetica;fontSize=14;fontColor=#FFFFFF;startArrow=classic;startFill=0;endArrow=classic;endFill=1;labelBackgroundColor=none;rounded=0;strokeColor=#2F5B7C;shadow=0;strokeWidth=3;entryX=0.5;entryY=1;entryDx=0;entryDy=0;exitX=0.5;exitY=0;exitDx=0;exitDy=0;" edge="1" parent="1" source="RiJoN2eTmRhTmO86q6G4-2080" target="RiJoN2eTmRhTmO86q6G4-2082">
          <mxGeometry relative="1" as="geometry">
            <mxPoint x="4042" y="425.49999999999955" as="sourcePoint" />
            <mxPoint x="4250" y="425.49999999999955" as="targetPoint" />
          </mxGeometry>
        </mxCell>
        <mxCell id="RiJoN2eTmRhTmO86q6G4-2082" value="West Great Ocean" style="rounded=1;whiteSpace=wrap;html=1;fontFamily=Helvetica;fontSize=14;fontColor=#FFFFFF;fillColor=#12aab5;strokeColor=none;shadow=0;labelBackgroundColor=none;strokeWidth=3;spacing=5;fontStyle=1;arcSize=7;" vertex="1" parent="1">
          <mxGeometry x="4240" y="800" width="120" height="60" as="geometry" />
        </mxCell>
        <mxCell id="RiJoN2eTmRhTmO86q6G4-2083" value="" style="edgeStyle=none;orthogonalLoop=1;jettySize=auto;html=1;fontFamily=Helvetica;fontSize=14;fontColor=#FFFFFF;startArrow=classic;startFill=0;endArrow=classic;endFill=1;labelBackgroundColor=none;rounded=0;strokeColor=#2F5B7C;shadow=0;strokeWidth=3;entryX=0.5;entryY=1;entryDx=0;entryDy=0;exitX=0.5;exitY=0;exitDx=0;exitDy=0;" edge="1" parent="1" source="RiJoN2eTmRhTmO86q6G4-2082" target="RiJoN2eTmRhTmO86q6G4-1958">
          <mxGeometry relative="1" as="geometry">
            <mxPoint x="4310" y="1090" as="sourcePoint" />
            <mxPoint x="4310" y="870" as="targetPoint" />
          </mxGeometry>
        </mxCell>
        <mxCell id="RiJoN2eTmRhTmO86q6G4-2084" value="" style="edgeStyle=none;orthogonalLoop=1;jettySize=auto;html=1;fontFamily=Helvetica;fontSize=14;fontColor=#FFFFFF;startArrow=classic;startFill=0;endArrow=classic;endFill=1;labelBackgroundColor=none;rounded=0;strokeColor=#2F5B7C;shadow=0;strokeWidth=3;entryX=1;entryY=0.5;entryDx=0;entryDy=0;exitX=0;exitY=0.5;exitDx=0;exitDy=0;" edge="1" parent="1" source="RiJoN2eTmRhTmO86q6G4-2082" target="RiJoN2eTmRhTmO86q6G4-1952">
          <mxGeometry relative="1" as="geometry">
            <mxPoint x="4320" y="1100" as="sourcePoint" />
            <mxPoint x="4320" y="880" as="targetPoint" />
          </mxGeometry>
        </mxCell>
        <mxCell id="RiJoN2eTmRhTmO86q6G4-2087" value="Pirate Lords?" style="rounded=1;whiteSpace=wrap;html=1;fontFamily=Helvetica;fontSize=14;fontColor=#FFFFFF;fillColor=#12aab5;strokeColor=none;shadow=0;labelBackgroundColor=none;strokeWidth=3;spacing=5;fontStyle=1;arcSize=7;" vertex="1" parent="1">
          <mxGeometry x="4440" y="104.5" width="120" height="60" as="geometry" />
        </mxCell>
        <mxCell id="RiJoN2eTmRhTmO86q6G4-2092" value="" style="edgeStyle=none;orthogonalLoop=1;jettySize=auto;html=1;fontFamily=Helvetica;fontSize=15;fontColor=#000000;startArrow=classic;startFill=0;endArrow=classic;endFill=1;" edge="1" parent="1" source="RiJoN2eTmRhTmO86q6G4-2089" target="RiJoN2eTmRhTmO86q6G4-2091">
          <mxGeometry relative="1" as="geometry" />
        </mxCell>
        <mxCell id="RiJoN2eTmRhTmO86q6G4-2093" value="" style="edgeStyle=none;orthogonalLoop=1;jettySize=auto;html=1;fontFamily=Helvetica;fontSize=14;fontColor=#FFFFFF;startArrow=classic;startFill=0;endArrow=classic;endFill=1;labelBackgroundColor=none;rounded=0;strokeColor=#2F5B7C;shadow=0;strokeWidth=3;" edge="1" parent="1" source="RiJoN2eTmRhTmO86q6G4-2089" target="RiJoN2eTmRhTmO86q6G4-2091">
          <mxGeometry relative="1" as="geometry" />
        </mxCell>
        <mxCell id="RiJoN2eTmRhTmO86q6G4-2089" value="Shire" style="rounded=1;whiteSpace=wrap;html=1;shadow=0;labelBackgroundColor=none;strokeColor=none;strokeWidth=3;fillColor=#BD9700;fontFamily=Helvetica;fontSize=14;fontColor=#FFFFFF;align=center;spacing=5;fontStyle=1;arcSize=7;perimeterSpacing=2;" vertex="1" parent="1">
          <mxGeometry x="260" y="240.25" width="150" height="60" as="geometry" />
        </mxCell>
        <mxCell id="RiJoN2eTmRhTmO86q6G4-2091" value="Blue Spur" style="rounded=1;whiteSpace=wrap;html=1;shadow=0;labelBackgroundColor=none;strokeColor=none;strokeWidth=3;fillColor=#BD9700;fontFamily=Helvetica;fontSize=14;fontColor=#FFFFFF;align=center;spacing=5;fontStyle=1;arcSize=7;perimeterSpacing=2;" vertex="1" parent="1">
          <mxGeometry x="30" y="240.25" width="150" height="60" as="geometry" />
        </mxCell>
        <mxCell id="RiJoN2eTmRhTmO86q6G4-2094" value="Freeport?" style="rounded=1;whiteSpace=wrap;html=1;fontFamily=Helvetica;fontSize=14;fontColor=#FFFFFF;fillColor=#12aab5;strokeColor=none;shadow=0;labelBackgroundColor=none;strokeWidth=3;spacing=5;fontStyle=1;arcSize=7;" vertex="1" parent="1">
          <mxGeometry x="4440" y="240.25" width="120" height="60" as="geometry" />
        </mxCell>
        <mxCell id="RiJoN2eTmRhTmO86q6G4-2095" value="" style="edgeStyle=none;orthogonalLoop=1;jettySize=auto;html=1;fontFamily=Helvetica;fontSize=14;fontColor=#FFFFFF;startArrow=classic;startFill=0;endArrow=classic;endFill=1;exitX=0.5;exitY=0;exitDx=0;exitDy=0;labelBackgroundColor=none;rounded=0;strokeColor=#2F5B7C;shadow=0;strokeWidth=3;entryX=0.5;entryY=1;entryDx=0;entryDy=0;" edge="1" parent="1" source="RiJoN2eTmRhTmO86q6G4-1956" target="RiJoN2eTmRhTmO86q6G4-2094">
          <mxGeometry relative="1" as="geometry">
            <mxPoint x="4499.6" y="374.5" as="sourcePoint" />
            <mxPoint x="4460" y="330" as="targetPoint" />
          </mxGeometry>
        </mxCell>
        <mxCell id="RiJoN2eTmRhTmO86q6G4-2096" value="" style="edgeStyle=none;orthogonalLoop=1;jettySize=auto;html=1;fontFamily=Helvetica;fontSize=14;fontColor=#FFFFFF;startArrow=classic;startFill=0;endArrow=classic;endFill=1;exitX=0.5;exitY=0;exitDx=0;exitDy=0;entryX=0.5;entryY=1;entryDx=0;entryDy=0;labelBackgroundColor=none;rounded=0;strokeColor=#2F5B7C;shadow=0;strokeWidth=3;" edge="1" parent="1" source="RiJoN2eTmRhTmO86q6G4-2094" target="RiJoN2eTmRhTmO86q6G4-2087">
          <mxGeometry relative="1" as="geometry">
            <mxPoint x="4520" y="545.5" as="sourcePoint" />
            <mxPoint x="4520" y="465.5" as="targetPoint" />
          </mxGeometry>
        </mxCell>
        <mxCell id="RiJoN2eTmRhTmO86q6G4-2097" value="Sea of&lt;br&gt;Serenity&lt;br&gt;&lt;br&gt;Water Plane&lt;br&gt;Entrance" style="ellipse;whiteSpace=wrap;html=1;fontFamily=Helvetica;fontSize=14;fontColor=#FFFFFF;fillColor=#12aab5;strokeColor=none;rounded=1;shadow=0;labelBackgroundColor=none;strokeWidth=3;spacing=5;fontStyle=1;arcSize=7;" vertex="1" parent="1">
          <mxGeometry x="4150" y="140" width="160" height="121.5" as="geometry" />
        </mxCell>
        <mxCell id="RiJoN2eTmRhTmO86q6G4-2098" value="Gypsy Camp" style="ellipse;whiteSpace=wrap;html=1;fontFamily=Helvetica;fontSize=14;fontColor=#FFFFFF;fillColor=#12aab5;strokeColor=none;rounded=1;shadow=0;labelBackgroundColor=none;strokeWidth=3;spacing=5;fontStyle=1;arcSize=7;" vertex="1" parent="1">
          <mxGeometry x="3330" y="290" width="120" height="80" as="geometry" />
        </mxCell>
        <mxCell id="RiJoN2eTmRhTmO86q6G4-2099" value="Ofcol" style="rounded=1;whiteSpace=wrap;html=1;shadow=0;labelBackgroundColor=none;strokeColor=none;strokeWidth=3;fillColor=#F08705;fontFamily=Helvetica;fontSize=14;fontColor=#FFFFFF;align=center;spacing=5;fontStyle=1;arcSize=7;perimeterSpacing=2;" vertex="1" parent="1">
          <mxGeometry x="740" y="-930" width="150" height="60" as="geometry" />
        </mxCell>
        <mxCell id="RiJoN2eTmRhTmO86q6G4-2101" value="Enchanted Forest" style="rounded=1;whiteSpace=wrap;html=1;shadow=0;labelBackgroundColor=none;strokeColor=none;strokeWidth=3;fillColor=#F08705;fontFamily=Helvetica;fontSize=14;fontColor=#FFFFFF;align=center;spacing=5;fontStyle=1;arcSize=7;perimeterSpacing=2;" vertex="1" parent="1">
          <mxGeometry x="740" y="-650" width="150" height="60" as="geometry" />
        </mxCell>
        <mxCell id="RiJoN2eTmRhTmO86q6G4-2106" value="" style="edgeStyle=none;orthogonalLoop=1;jettySize=auto;html=1;fontFamily=Helvetica;fontSize=14;fontColor=#FFFFFF;startArrow=classic;startFill=0;endArrow=classic;endFill=1;exitX=0;exitY=1;exitDx=0;exitDy=0;labelBackgroundColor=none;rounded=0;strokeColor=#2F5B7C;shadow=0;strokeWidth=3;" edge="1" parent="1" source="RiJoN2eTmRhTmO86q6G4-2103" target="RiJoN2eTmRhTmO86q6G4-2105">
          <mxGeometry relative="1" as="geometry">
            <mxPoint x="90" y="1200" as="sourcePoint" />
          </mxGeometry>
        </mxCell>
        <mxCell id="RiJoN2eTmRhTmO86q6G4-2103" value="Cavern of Heroes" style="rounded=1;whiteSpace=wrap;html=1;shadow=0;labelBackgroundColor=none;strokeColor=none;strokeWidth=3;fillColor=#2F5B7C;fontFamily=Helvetica;fontSize=16;fontColor=#FFFFFF;align=center;fontStyle=1;spacing=5;arcSize=7;perimeterSpacing=2;" vertex="1" parent="1">
          <mxGeometry x="70" y="1130" width="145" height="64" as="geometry" />
        </mxCell>
        <mxCell id="RiJoN2eTmRhTmO86q6G4-2105" value="Elemental Plane of Earth" style="rounded=1;whiteSpace=wrap;html=1;shadow=0;labelBackgroundColor=none;strokeColor=none;strokeWidth=3;fillColor=#2F5B7C;fontFamily=Helvetica;fontSize=16;fontColor=#FFFFFF;align=center;fontStyle=1;spacing=5;arcSize=7;perimeterSpacing=2;" vertex="1" parent="1">
          <mxGeometry x="-160" y="1320" width="145" height="64" as="geometry" />
        </mxCell>
      </root>
    </mxGraphModel>
  </diagram>
</mxfile>
